<?xml version="1.0" encoding="UTF-8"?>
<svg version="1.1" xmlns="http://www.w3.org/2000/svg" width="512" height="512">
<path d="M0 0 C125.4 0 250.8 0 380 0 C380 10.89 380 21.78 380 33 C390.89 33 401.78 33 413 33 C413 55.11 413 77.22 413 100 C423.89 100 434.78 100 446 100 C446 126.07 446 152.14 446 179 C435.11 179 424.22 179 413 179 C413 266.78 413 354.56 413 445 C423.89 445 434.78 445 446 445 C446 467.11 446 489.22 446 512 C277.04 512 108.08 512 -66 512 C-66 489.89 -66 467.78 -66 445 C-55.11 445 -44.22 445 -33 445 C-33 357.22 -33 269.44 -33 179 C-43.89 179 -54.78 179 -66 179 C-66 152.93 -66 126.86 -66 100 C-55.11 100 -44.22 100 -33 100 C-33 77.89 -33 55.78 -33 33 C-22.11 33 -11.22 33 0 33 C0 22.11 0 11.22 0 0 Z " fill="#000000" transform="translate(66,0)"/>
<path d="M0 0 C22.11 0 44.22 0 67 0 C67 47.85 67 95.7 67 145 C77.89 145 88.78 145 100 145 C100.33 155.89 100.66 166.78 101 178 C122.78 178 144.56 178 167 178 C167.33 167.11 167.66 156.22 168 145 C178.89 145 189.78 145 201 145 C201 97.15 201 49.3 201 0 C223.11 0 245.22 0 268 0 C268 47.85 268 95.7 268 145 C278.89 145 289.78 145 301 145 C301 156.22 301 167.44 301 179 C308.26 179 315.52 179 323 179 C323 245 323 311 323 379 C242.15 379 161.3 379 78 379 C78 323.89 78 268.78 78 212 C45 212 12 212 -22 212 C-22 267.11 -22 322.22 -22 379 C-32.89 379 -43.78 379 -55 379 C-55 313 -55 247 -55 179 C-47.74 179 -40.48 179 -33 179 C-33 167.78 -33 156.56 -33 145 C-22.11 145 -11.22 145 0 145 C0 97.15 0 49.3 0 0 Z " fill="#82C6FB" transform="translate(122,33)"/>
<path d="M0 0 C124.74 0 249.48 0 378 0 C378 10.89 378 21.78 378 33 C337.74 33 297.48 33 256 33 C256 80.85 256 128.7 256 178 C245.11 178 234.22 178 223 178 C223.03959995 188.81533243 223.03959995 188.81533243 223.09008789 199.63061523 C223.09300716 200.98160727 223.09555569 202.33260019 223.09765625 203.68359375 C223.10277222 204.39100708 223.10788818 205.09842041 223.11315918 205.82727051 C223.11347032 207.55192617 223.06225761 209.27646838 223 211 C221.17443883 212.82556117 218.29461397 212.12772403 215.84375 212.12939453 C214.52568359 212.13254669 213.20761719 212.13569885 211.84960938 212.13894653 C210.39973925 212.13715675 208.94986942 212.1351058 207.5 212.1328125 C206.02408838 212.13348557 204.54817687 212.13445563 203.07226562 212.13571167 C199.97524971 212.13718848 196.87826258 212.13503464 193.78125 212.13037109 C189.80291451 212.1246738 185.82464648 212.1279529 181.84631348 212.13394356 C178.79752083 212.13754963 175.74874429 212.13641037 172.69995117 212.13381577 C171.23266594 212.13314662 169.76537926 212.13397447 168.2980957 212.13629532 C166.25081407 212.13882257 164.20352734 212.1342906 162.15625 212.12939453 C160.40538086 212.12820114 160.40538086 212.12820114 158.61914062 212.12698364 C156 212 156 212 155 211 C154.9115717 208.55196233 154.88464028 206.13155206 154.90234375 203.68359375 C154.90335083 203.03588013 154.90435791 202.3881665 154.90539551 201.7208252 C154.91064157 199.29303221 154.92460275 196.86526439 154.9375 194.4375 C154.958125 189.013125 154.97875 183.58875 155 178 C144.11 178 133.22 178 122 178 C122 130.15 122 82.3 122 33 C99.89 33 77.78 33 55 33 C55 80.85 55 128.7 55 178 C25.96 178 -3.08 178 -33 178 C-33 130.48 -33 82.96 -33 34 C-22.11 34 -11.22 34 0 34 C0 22.78 0 11.56 0 0 Z " fill="#F90022" transform="translate(67,0)"/>
<path d="M0 0 C0.33 0 0.66 0 1 0 C1 11.22 1 22.44 1 34 C-9.89 34 -20.78 34 -32 34 C-32 169.63 -32 305.26 -32 445 C114.52 445 261.04 445 412 445 C412 309.37 412 173.74 412 34 C382.96 34 353.92 34 324 34 C324 33.67 324 33.34 324 33 C342.15 33 360.3 33 379 33 C379 22.11 379 11.22 379 0 C379.33 0 379.66 0 380 0 C380 10.89 380 21.78 380 33 C390.89 33 401.78 33 413 33 C413 55.11 413 77.22 413 100 C423.89 100 434.78 100 446 100 C446 126.07 446 152.14 446 179 C435.11 179 424.22 179 413 179 C413 266.78 413 354.56 413 445 C423.89 445 434.78 445 446 445 C446 467.11 446 489.22 446 512 C277.04 512 108.08 512 -66 512 C-66 489.89 -66 467.78 -66 445 C-55.11 445 -44.22 445 -33 445 C-33 357.22 -33 269.44 -33 179 C-43.89 179 -54.78 179 -66 179 C-66 152.93 -66 126.86 -66 100 C-55.11 100 -44.22 100 -33 100 C-33 77.89 -33 55.78 -33 33 C-22.11 33 -11.22 33 0 33 C0 22.11 0 11.22 0 0 Z " fill="#736E78" transform="translate(66,0)"/>
<path d="M0 0 C44.22 0 88.44 0 134 0 C134 47.85 134 95.7 134 145 C123.11 145 112.22 145 101 145 C101.03959995 155.81533243 101.03959995 155.81533243 101.09008789 166.63061523 C101.09300716 167.98160727 101.09555569 169.33260019 101.09765625 170.68359375 C101.10277222 171.39100708 101.10788818 172.09842041 101.11315918 172.82727051 C101.11347032 174.55192617 101.06225761 176.27646838 101 178 C99.17443883 179.82556117 96.29461397 179.12772403 93.84375 179.12939453 C92.52568359 179.13254669 91.20761719 179.13569885 89.84960938 179.13894653 C88.39973925 179.13715675 86.94986942 179.1351058 85.5 179.1328125 C84.02408838 179.13348557 82.54817687 179.13445563 81.07226562 179.13571167 C77.97524971 179.13718848 74.87826258 179.13503464 71.78125 179.13037109 C67.80291451 179.1246738 63.82464648 179.1279529 59.84631348 179.13394356 C56.79752083 179.13754963 53.74874429 179.13641037 50.69995117 179.13381577 C49.23266594 179.13314662 47.76537926 179.13397447 46.2980957 179.13629532 C44.25081407 179.13882257 42.20352734 179.1342906 40.15625 179.12939453 C38.40538086 179.12820114 38.40538086 179.12820114 36.61914062 179.12698364 C34 179 34 179 33 178 C32.9115717 175.55196233 32.88464028 173.13155206 32.90234375 170.68359375 C32.90335083 170.03588013 32.90435791 169.3881665 32.90539551 168.7208252 C32.91064157 166.29303221 32.92460275 163.86526439 32.9375 161.4375 C32.9684375 153.3009375 32.9684375 153.3009375 33 145 C22.11 145 11.22 145 0 145 C0 97.15 0 49.3 0 0 Z " fill="#F80023" transform="translate(189,33)"/>
<path d="M0 0 C58.74 0 117.48 0 178 0 C178 40.26 178 80.52 178 122 C119.26 122 60.52 122 0 122 C0 81.74 0 41.48 0 0 Z " fill="#00479B" transform="translate(234,245)"/>
<path d="M0 0 C10.89 0 21.78 0 33 0 C33 11.22 33 22.44 33 34 C180.18 34 327.36 34 479 34 C479 22.78 479 11.56 479 0 C489.89 0 500.78 0 512 0 C512 22.11 512 44.22 512 67 C343.04 67 174.08 67 0 67 C0 44.89 0 22.78 0 0 Z " fill="#000000" transform="translate(0,445)"/>
<path d="M0 0 C33 0 66 0 100 0 C100 55.11 100 110.22 100 167 C67 167 34 167 0 167 C0 111.89 0 56.78 0 0 Z " fill="#00479A" transform="translate(100,245)"/>
<path d="M0 0 C29.04 0 58.08 0 88 0 C88 47.52 88 95.04 88 144 C58.96 144 29.92 144 0 144 C0 96.48 0 48.96 0 0 Z " fill="#FA0022" transform="translate(390,34)"/>
<path d="M0 0 C124.74 0 249.48 0 378 0 C378 10.89 378 21.78 378 33 C253.26 33 128.52 33 0 33 C0 22.11 0 11.22 0 0 Z " fill="#000000" transform="translate(67,0)"/>
<path d="M0 0 C21.78 0 43.56 0 66 0 C66 47.52 66 95.04 66 144 C44.22 144 22.44 144 0 144 C0 96.48 0 48.96 0 0 Z " fill="#FFFFFF" transform="translate(323,34)"/>
<path d="M0 0 C21.78 0 43.56 0 66 0 C66 47.52 66 95.04 66 144 C44.22 144 22.44 144 0 144 C0 96.48 0 48.96 0 0 Z " fill="#FFFFFF" transform="translate(123,34)"/>
<path d="M0 0 C10.89 0 21.78 0 33 0 C33 25.74 33 51.48 33 78 C22.11 78 11.22 78 0 78 C0 52.26 0 26.52 0 0 Z " fill="#000000" transform="translate(479,100)"/>
<path d="M0 0 C10.89 0 21.78 0 33 0 C33 25.74 33 51.48 33 78 C22.11 78 11.22 78 0 78 C0 52.26 0 26.52 0 0 Z " fill="#000000" transform="translate(0,100)"/>
<path d="M0 0 C21.78 0 43.56 0 66 0 C66 11.22 66 22.44 66 34 C44.22 34 22.44 34 0 34 C0 22.78 0 11.56 0 0 Z " fill="#030102" transform="translate(223,178)"/>
<path d="M0 0 C21.78 0 43.56 0 66 0 C66 10.89 66 21.78 66 33 C44.22 33 22.44 33 0 33 C0 22.11 0 11.22 0 0 Z " fill="#000000" transform="translate(323,178)"/>
<path d="M0 0 C21.78 0 43.56 0 66 0 C66 10.89 66 21.78 66 33 C44.22 33 22.44 33 0 33 C0 22.11 0 11.22 0 0 Z " fill="#000000" transform="translate(123,178)"/>
<path d="M0 0 C10.89 0 21.78 0 33 0 C33 21.78 33 43.56 33 66 C22.11 66 11.22 66 0 66 C0 44.22 0 22.44 0 0 Z " fill="#010000" transform="translate(445,34)"/>
<path d="M0 0 C10.89 0 21.78 0 33 0 C33 21.78 33 43.56 33 66 C22.11 66 11.22 66 0 66 C0 44.22 0 22.44 0 0 Z " fill="#010000" transform="translate(34,34)"/>
<path d="M0 0 C10.89 0 21.78 0 33 0 C33 14.52 33 29.04 33 44 C22.11 44 11.22 44 0 44 C0 29.48 0 14.96 0 0 Z " fill="#000000" transform="translate(390,134)"/>
<path d="M0 0 C10.89 0 21.78 0 33 0 C33 14.52 33 29.04 33 44 C22.11 44 11.22 44 0 44 C0 29.48 0 14.96 0 0 Z " fill="#010000" transform="translate(290,134)"/>
<path d="M0 0 C10.89 0 21.78 0 33 0 C33 14.52 33 29.04 33 44 C22.11 44 11.22 44 0 44 C0 29.48 0 14.96 0 0 Z " fill="#010000" transform="translate(189,134)"/>
<path d="M0 0 C10.89 0 21.78 0 33 0 C33 14.52 33 29.04 33 44 C22.11 44 11.22 44 0 44 C0 29.48 0 14.96 0 0 Z " fill="#000000" transform="translate(89,134)"/>
</svg>
