<?xml version="1.0" encoding="UTF-8"?>
<svg version="1.1" xmlns="http://www.w3.org/2000/svg" width="512" height="512">
<path d="M0 0 C97.02 0 194.04 0 294 0 C294 6.27 294 12.54 294 19 C300.27 19 306.54 19 313 19 C313 38.8 313 58.6 313 79 C306.73 79 300.46 79 294 79 C294 84.94 294 90.88 294 97 C300.27 97 306.54 97 313 97 C313 116.8 313 136.6 313 157 C306.73 157 300.46 157 294 157 C294 162.94 294 168.88 294 175 C300.27 175 306.54 175 313 175 C313 188.53 313 202.06 313 216 C306.73 216 300.46 216 294 216 C294 221.61 294 227.22 294 233 C300.27 233 306.54 233 313 233 C313 253.13 313 273.26 313 294 C306.73 294 300.46 294 294 294 C294 300.27 294 306.54 294 313 C287.73 313 281.46 313 275 313 C275 319.27 275 325.54 275 332 C254.87 332 234.74 332 214 332 C214 325.73 214 319.46 214 313 C207.73 313 201.46 313 195 313 C195 306.73 195 300.46 195 294 C188.79207086 294.03958027 188.79207086 294.03958027 182.58422852 294.09008789 C181.81522217 294.09258545 181.04621582 294.09508301 180.25390625 294.09765625 C179.06776733 294.10551147 179.06776733 294.10551147 177.85766602 294.11352539 C176 294 176 294 175 293 C175 280.46 175 267.92 175 255 C117.25 255 59.5 255 0 255 C0 248.4 0 241.8 0 235 C-6.27 235 -12.54 235 -19 235 C-19 215.2 -19 195.4 -19 175 C-12.73 175 -6.46 175 0 175 C0 169.06 0 163.12 0 157 C-6.27 157 -12.54 157 -19 157 C-19 137.2 -19 117.4 -19 97 C-12.73 97 -6.46 97 0 97 C0 91.06 0 85.12 0 79 C-6.27 79 -12.54 79 -19 79 C-19 59.2 -19 39.4 -19 19 C-12.73 19 -6.46 19 0 19 C0 12.73 0 6.46 0 0 Z " fill="#000102" transform="translate(100,102)"/>
<path d="M0 0 C97.02 0 194.04 0 294 0 C294 6.27 294 12.54 294 19 C300.27 19 306.54 19 313 19 C313 38.8 313 58.6 313 79 C203.44 79 93.88 79 -19 79 C-19 59.2 -19 39.4 -19 19 C-12.73 19 -6.46 19 0 19 C0 12.73 0 6.46 0 0 Z " fill="#000000" transform="translate(100,102)"/>
<path d="M0 0 C96.36 0 192.72 0 292 0 C292 12.87 292 25.74 292 39 C285.73 39 279.46 39 273 39 C273 32.4 273 25.8 273 19 C253.53 19 234.06 19 214 19 C214 25.6 214 32.2 214 39 C207.73 39 201.46 39 195 39 C195 45.27 195 51.54 195 58 C130.65 58 66.3 58 0 58 C0 38.86 0 19.72 0 0 Z " fill="#A1AAB6" transform="translate(101,278)"/>
<path d="M0 0 C1.29696273 0.00092179 2.59392546 0.00184359 3.93019009 0.00279331 C4.64974973 0.00193889 5.36930937 0.00108446 6.11067384 0.00020415 C8.53983074 -0.00145277 10.96891972 0.00407415 13.39807034 0.00952244 C15.13218592 0.00980429 16.86630162 0.00964661 18.60041714 0.00907993 C23.32335815 0.00879188 28.046274 0.01468984 32.76920915 0.02165389 C37.69932285 0.02788616 42.62943707 0.02849113 47.5595541 0.0296793 C56.90225856 0.03279299 66.24495139 0.04100688 75.58765072 0.05102879 C86.22108549 0.06218876 96.85452081 0.06770008 107.48795998 0.07272422 C129.36807958 0.08318947 151.24818322 0.10153541 173.12829494 0.12304783 C173.12829494 19.59304783 173.12829494 39.06304783 173.12829494 59.12304783 C114.71829494 59.12304783 56.30829494 59.12304783 -3.87170506 59.12304783 C-3.87170506 0.16589618 -3.87170506 0.16589618 0 0 Z " fill="#F6F8F9" transform="translate(220.87170505523682,120.87695217132568)"/>
<path d="M0 0 C57.75 0 115.5 0 175 0 C175 19.14 175 38.28 175 58 C117.25 58 59.5 58 0 58 C0 38.86 0 19.72 0 0 Z " fill="#A1A9B6" transform="translate(218,200)"/>
<path d="M0 0 C19.14 0 38.28 0 58 0 C58 6.27 58 12.54 58 19 C64.6 19 71.2 19 78 19 C78 38.47 78 57.94 78 78 C71.4 78 64.8 78 58 78 C58 84.6 58 91.2 58 98 C38.53 98 19.06 98 -1 98 C-1 91.4 -1 84.8 -1 78 C-7.27 78 -13.54 78 -20 78 C-20 58.86 -20 39.72 -20 20 C-13.73 19.67 -7.46 19.34 -1 19 C-0.67 12.73 -0.34 6.46 0 0 Z " fill="#4892F9" transform="translate(316,317)"/>
<path d="M0 0 C38.61 0 77.22 0 117 0 C117 19.14 117 38.28 117 58 C78.39 58 39.78 58 0 58 C0 38.86 0 19.72 0 0 Z " fill="#005FDF" transform="translate(101,278)"/>
<path d="M0 0 C19.47 0 38.94 0 59 0 C59 6.6 59 13.2 59 20 C39.86 20 20.72 20 1 20 C1 26.27 1 32.54 1 39 C0.67 39.33 0.34 39.66 0 40 C-6.27 40 -12.54 40 -19 40 C-19 59.14 -19 78.28 -19 98 C-12.73 98 -6.46 98 0 98 C0 98.33 0 98.66 0 99 C-5.53588533 99.02464775 -11.071739 99.04283496 -16.60766602 99.05493164 C-18.4924373 99.05997244 -20.37720465 99.06680498 -22.26196289 99.07543945 C-24.96501636 99.08751617 -27.66801831 99.09323068 -30.37109375 99.09765625 C-31.21900986 99.10281754 -32.06692596 99.10797882 -32.9405365 99.11329651 C-34.96071068 99.11349195 -36.98077934 99.06206211 -39 99 C-39.33 98.67 -39.66 98.34 -40 98 C-40 85.46 -40 72.92 -40 60 C-97.75 60 -155.5 60 -215 60 C-215 53.4 -215 46.8 -215 40 C-200.70843769 39.82368832 -186.416787 39.65707932 -172.125 39.5 C-171.0449192 39.48812275 -169.96483841 39.4762455 -168.85202789 39.46400833 C-133.19248174 39.07524954 -97.53661101 38.90923639 -61.875 38.9375 C-60.24303555 38.93878403 -60.24303555 38.93878403 -58.57810211 38.94009399 C-45.38538109 38.95126498 -32.1926952 38.97186413 -19 39 C-19 32.73 -19 26.46 -19 20 C-12.73 20 -6.46 20 0 20 C0 13.4 0 6.8 0 0 Z " fill="#000000" transform="translate(315,297)"/>
<path d="M0 0 C32.01 0 64.02 0 97 0 C97 19.14 97 38.28 97 58 C64.99 58 32.98 58 0 58 C0 38.86 0 19.72 0 0 Z " fill="#005FDF" transform="translate(101,200)"/>
<path d="M0 0 C32.01 0 64.02 0 97 0 C97 19.14 97 38.28 97 58 C64.99 58 32.98 58 0 58 C0 38.86 0 19.72 0 0 Z " fill="#005EDE" transform="translate(101,122)"/>
<path d="M0 0 C97.02 0 194.04 0 294 0 C294 5.94 294 11.88 294 18 C196.98 18 99.96 18 0 18 C0 12.06 0 6.12 0 0 Z " fill="#000000" transform="translate(100,181)"/>
<path d="M0 0 C109.56 0 219.12 0 332 0 C332 19.8 332 39.6 332 60 C222.44 60 112.88 60 0 60 C0 40.2 0 20.4 0 0 Z M20 1 C20 20.14 20 39.28 20 59 C52.01 59 84.02 59 117 59 C117 39.86 117 20.72 117 1 C84.99 1 52.98 1 20 1 Z M137 1 C137 20.14 137 39.28 137 59 C194.75 59 252.5 59 312 59 C312 39.86 312 20.72 312 1 C254.25 1 196.5 1 137 1 Z " fill="#0F3568" transform="translate(81,199)"/>
<path d="M0 0 C1.29696273 0.00092179 2.59392546 0.00184359 3.93019009 0.00279331 C4.64974973 0.00193889 5.36930937 0.00108446 6.11067384 0.00020415 C8.53983074 -0.00145277 10.96891972 0.00407415 13.39807034 0.00952244 C15.13218592 0.00980429 16.86630162 0.00964661 18.60041714 0.00907993 C23.32335815 0.00879188 28.046274 0.01468984 32.76920915 0.02165389 C37.69932285 0.02788616 42.62943707 0.02849113 47.5595541 0.0296793 C56.90225856 0.03279299 66.24495139 0.04100688 75.58765072 0.05102879 C86.22108549 0.06218876 96.85452081 0.06770008 107.48795998 0.07272422 C129.36807958 0.08318947 151.24818322 0.10153541 173.12829494 0.12304783 C173.12829494 19.59304783 173.12829494 39.06304783 173.12829494 59.12304783 C114.71829494 59.12304783 56.30829494 59.12304783 -3.87170506 59.12304783 C-3.87170506 0.16589618 -3.87170506 0.16589618 0 0 Z M-2.87170506 1.12304783 C-2.87170506 13.99304783 -2.87170506 26.86304783 -2.87170506 40.12304783 C42.00829494 40.12304783 86.88829494 40.12304783 133.12829494 40.12304783 C133.12829494 33.52304783 133.12829494 26.92304783 133.12829494 20.12304783 C139.72829494 20.12304783 146.32829494 20.12304783 153.12829494 20.12304783 C153.12829494 26.72304783 153.12829494 33.32304783 153.12829494 40.12304783 C159.39829494 40.12304783 165.66829494 40.12304783 172.12829494 40.12304783 C172.12829494 27.25304783 172.12829494 14.38304783 172.12829494 1.12304783 C114.37829494 1.12304783 56.62829494 1.12304783 -2.87170506 1.12304783 Z " fill="#9BA4B1" transform="translate(220.87170505523682,120.87695217132568)"/>
<path d="M0 0 C45.21 0 90.42 0 137 0 C136.67 19.47 136.34 38.94 136 59 C194.41 59 252.82 59 313 59 C313 39.53 313 20.06 313 0 C319.27 0 325.54 0 332 0 C332 19.8 332 39.6 332 60 C222.44 60 112.88 60 0 60 C0 40.2 0 20.4 0 0 Z M20 1 C20 20.14 20 39.28 20 59 C52.01 59 84.02 59 117 59 C117 39.86 117 20.72 117 1 C84.99 1 52.98 1 20 1 Z " fill="#040608" transform="translate(81,121)"/>
<path d="M0 0 C6.6 0 13.2 0 20 0 C20 6.6 20 13.2 20 20 C26.27 20 32.54 20 39 20 C39 26.27 39 32.54 39 39 C-18.75 39 -76.5 39 -136 39 C-136 32.73 -136 26.46 -136 20 C-91.12 20 -46.24 20 0 20 C0 13.4 0 6.8 0 0 Z " fill="#A0A9B6" transform="translate(354,219)"/>
<path d="M0 0 C32.01 0 64.02 0 97 0 C97 6.6 97 13.2 97 20 C90.73 20 84.46 20 78 20 C78 26.27 78 32.54 78 39 C52.26 39 26.52 39 0 39 C0 26.13 0 13.26 0 0 Z " fill="#D8DEE6" transform="translate(218,297)"/>
<path d="M0 0 C19.14 0 38.28 0 58 0 C58 6.27 58 12.54 58 19 C51.73 19 45.46 19 39 19 C39 25.6 39 32.2 39 39 C45.27 39 51.54 39 58 39 C58 45.27 58 51.54 58 58 C51.4 58 44.8 58 38 58 C38 64.6 38 71.2 38 78 C31.73 78 25.46 78 19 78 C19 71.73 19 65.46 19 59 C12.4 59 5.8 59 -1 59 C-1 52.07 -1 45.14 -1 38 C5.27 38 11.54 38 18 38 C18 32.06 18 26.12 18 20 C12.06 20 6.12 20 0 20 C0 13.4 0 6.8 0 0 Z " fill="#F5F7FA" transform="translate(316,317)"/>
<path d="M0 0 C38.61 0 77.22 0 117 0 C117 19.14 117 38.28 117 58 C110.4 58 103.8 58 97 58 C97 45.13 97 32.26 97 19 C64.99 19 32.98 19 0 19 C0 12.73 0 6.46 0 0 Z " fill="#005EDF" transform="translate(101,278)"/>
<path d="M0 0 C44.88 0 89.76 0 136 0 C136 6.6 136 13.2 136 20 C91.12 20 46.24 20 0 20 C0 13.4 0 6.8 0 0 Z " fill="#D9DFE6" transform="translate(218,219)"/>
<path d="M0 0 C44.88 0 89.76 0 136 0 C136 6.6 136 13.2 136 20 C91.12 20 46.24 20 0 20 C0 13.4 0 6.8 0 0 Z " fill="#D9DFE7" transform="translate(218,141)"/>
<path d="M0 0 C32.01 0 64.02 0 97 0 C97 6.27 97 12.54 97 19 C90.73 19 84.46 19 78 19 C78 25.6 78 32.2 78 39 C71.4 39 64.8 39 58 39 C58 32.4 58 25.8 58 19 C51.4 19 44.8 19 38 19 C38 25.27 38 31.54 38 38 C31.73 38 25.46 38 19 38 C19 31.73 19 25.46 19 19 C12.73 19 6.46 19 0 19 C0 12.73 0 6.46 0 0 Z " fill="#ACCEFE" transform="translate(101,122)"/>
<path d="M0 0 C32.01 0 64.02 0 97 0 C97 6.27 97 12.54 97 19 C64.99 19 32.98 19 0 19 C0 12.73 0 6.46 0 0 Z " fill="#005EDF" transform="translate(101,239)"/>
<path d="M0 0 C2.743125 0.185625 5.48625 0.37125 8.3125 0.5625 C8.3125 6.5025 8.3125 12.4425 8.3125 18.5625 C2.0425 18.5625 -4.2275 18.5625 -10.6875 18.5625 C-10.6875 25.4925 -10.6875 32.4225 -10.6875 39.5625 C-4.0875 39.5625 2.5125 39.5625 9.3125 39.5625 C9.3125 45.8325 9.3125 52.1025 9.3125 58.5625 C-3.5575 58.5625 -16.4275 58.5625 -29.6875 58.5625 C-29.6875 39.4225 -29.6875 20.2825 -29.6875 0.5625 C-7.8433642 -0.58719136 -7.8433642 -0.58719136 0 0 Z " fill="#4793FD" transform="translate(325.6875,336.4375)"/>
<path d="M0 0 C19.47 0 38.94 0 59 0 C59 6.6 59 13.2 59 20 C39.86 20 20.72 20 1 20 C1 26.27 1 32.54 1 39 C0.67 39.33 0.34 39.66 0 40 C-6.27 40 -12.54 40 -19 40 C-19 59.14 -19 78.28 -19 98 C-19.33 98 -19.66 98 -20 98 C-20 78.86 -20 59.72 -20 40 C-45.41 40 -70.82 40 -97 40 C-97 39.67 -97 39.34 -97 39 C-71.26 39 -45.52 39 -19 39 C-19 32.73 -19 26.46 -19 20 C-12.73 20 -6.46 20 0 20 C0 13.4 0 6.8 0 0 Z " fill="#000000" transform="translate(315,297)"/>
<path d="M0 0 C25.74 0 51.48 0 78 0 C78 6.27 78 12.54 78 19 C52.26 19 26.52 19 0 19 C0 12.73 0 6.46 0 0 Z " fill="#A0A9B6" transform="translate(218,317)"/>
<path d="M0 0 C38.94 0 77.88 0 118 0 C117.67 19.47 117.34 38.94 117 59 C110.73 59 104.46 59 98 59 C98 39.86 98 20.72 98 1 C65.99 1 33.98 1 1 1 C1 20.14 1 39.28 1 59 C0.67 59 0.34 59 0 59 C0 39.53 0 20.06 0 0 Z " fill="#09397A" transform="translate(100,121)"/>
<path d="M0 0 C19.14 0 38.28 0 58 0 C58 6.27 58 12.54 58 19 C51.73 19 45.46 19 39 19 C39 25.6 39 32.2 39 39 C38.67 39 38.34 39 38 39 C38 32.4 38 25.8 38 19 C31.73 19 25.46 19 19 19 C19 25.6 19 32.2 19 39 C12.73 39 6.46 39 0 39 C0 45.27 0 51.54 0 58 C6.27 58 12.54 58 19 58 C19 58.33 19 58.66 19 59 C12.4 59 5.8 59 -1 59 C-1 52.07 -1 45.14 -1 38 C5.27 38 11.54 38 18 38 C18 32.06 18 26.12 18 20 C12.06 20 6.12 20 0 20 C0 13.4 0 6.8 0 0 Z " fill="#A8CBFD" transform="translate(316,317)"/>
<path d="M0 0 C19.47 0 38.94 0 59 0 C59 6.6 59 13.2 59 20 C39.53 20 20.06 20 0 20 C0 13.4 0 6.8 0 0 Z " fill="#005CD8" transform="translate(315,395)"/>
<path d="M0 0 C6.6 0 13.2 0 20 0 C20 19.14 20 38.28 20 58 C13.4 58 6.8 58 0 58 C0 38.86 0 19.72 0 0 Z " fill="#03367D" transform="translate(198,278)"/>
<path d="M0 0 C6.27 0 12.54 0 19 0 C19 19.8 19 39.6 19 60 C12.73 60 6.46 60 0 60 C0 40.2 0 20.4 0 0 Z " fill="#000000" transform="translate(394,199)"/>
<path d="M0 0 C6.27 0 12.54 0 19 0 C19 19.8 19 39.6 19 60 C12.73 60 6.46 60 0 60 C0 40.2 0 20.4 0 0 Z " fill="#000000" transform="translate(81,199)"/>
<path d="M0 0 C6.27 0 12.54 0 19 0 C19 19.8 19 39.6 19 60 C12.73 60 6.46 60 0 60 C0 40.2 0 20.4 0 0 Z " fill="#000000" transform="translate(394,121)"/>
<path d="M0 0 C64.35 0 128.7 0 195 0 C195 13.53 195 27.06 195 41 C182.46 41 169.92 41 157 41 C157 46.94 157 52.88 157 59 C156.67 59 156.34 59 156 59 C156 52.73 156 46.46 156 40 C162.27 40 168.54 40 175 40 C175 27.13 175 14.26 175 1 C117.25 1 59.5 1 0 1 C0 0.67 0 0.34 0 0 Z " fill="#0B0C0D" transform="translate(218,277)"/>
<path d="M0 0 C6.27 0 12.54 0 19 0 C19 6.27 19 12.54 19 19 C25.27 19 31.54 19 38 19 C38 12.73 38 6.46 38 0 C44.6 0 51.2 0 58 0 C58 6.6 58 13.2 58 20 C38.86 20 19.72 20 0 20 C0 13.4 0 6.8 0 0 Z " fill="#4B95F2" transform="translate(101,141)"/>
<path d="M0 0 C19.47 0 38.94 0 59 0 C59 6.6 59 13.2 59 20 C39.86 20 20.72 20 1 20 C1 26.27 1 32.54 1 39 C0.67 39.33 0.34 39.66 0 40 C-6.27 40 -12.54 40 -19 40 C-19 59.14 -19 78.28 -19 98 C-19.33 98 -19.66 98 -20 98 C-20 78.86 -20 59.72 -20 40 C-45.41 40 -70.82 40 -97 40 C-97 39.67 -97 39.34 -97 39 C-71.26 39 -45.52 39 -19 39 C-19 32.73 -19 26.46 -19 20 C-12.73 20 -6.46 20 0 20 C0 13.4 0 6.8 0 0 Z M1 1 C1 6.94 1 12.88 1 19 C19.81 19 38.62 19 58 19 C58 13.06 58 7.12 58 1 C39.19 1 20.38 1 1 1 Z " fill="#191E26" transform="translate(315,297)"/>
<path d="M0 0 C6.6 0 13.2 0 20 0 C20 6.6 20 13.2 20 20 C13.4 20 6.8 20 0 20 C0 13.4 0 6.8 0 0 Z " fill="#AACC4A" transform="translate(159,297)"/>
<path d="M0 0 C6.6 0 13.2 0 20 0 C20 6.6 20 13.2 20 20 C13.4 20 6.8 20 0 20 C0 13.4 0 6.8 0 0 Z " fill="#AACC4A" transform="translate(120,297)"/>
<path d="M0 0 C6.6 0 13.2 0 20 0 C20 6.6 20 13.2 20 20 C13.4 20 6.8 20 0 20 C0 13.4 0 6.8 0 0 Z " fill="#FB4041" transform="translate(354,219)"/>
<path d="M0 0 C6.6 0 13.2 0 20 0 C20 6.6 20 13.2 20 20 C13.4 20 6.8 20 0 20 C0 13.4 0 6.8 0 0 Z " fill="#AACC4A" transform="translate(159,219)"/>
<path d="M0 0 C6.6 0 13.2 0 20 0 C20 6.6 20 13.2 20 20 C13.4 20 6.8 20 0 20 C0 13.4 0 6.8 0 0 Z " fill="#AACC4A" transform="translate(120,219)"/>
<path d="M0 0 C6.6 0 13.2 0 20 0 C20 6.6 20 13.2 20 20 C13.4 20 6.8 20 0 20 C0 13.4 0 6.8 0 0 Z " fill="#FB4142" transform="translate(354,141)"/>
<path d="M0 0 C6.6 0 13.2 0 20 0 C20 6.6 20 13.2 20 20 C13.4 20 6.8 20 0 20 C0 13.4 0 6.8 0 0 Z " fill="#ACCC4B" transform="translate(159,141)"/>
<path d="M0 0 C6.27 0 12.54 0 19 0 C19 6.6 19 13.2 19 20 C12.73 20 6.46 20 0 20 C0 13.4 0 6.8 0 0 Z " fill="#4592FD" transform="translate(179,297)"/>
<path d="M0 0 C6.27 0 12.54 0 19 0 C19 6.6 19 13.2 19 20 C12.73 20 6.46 20 0 20 C0 13.4 0 6.8 0 0 Z " fill="#4692FC" transform="translate(140,297)"/>
<path d="M0 0 C6.27 0 12.54 0 19 0 C19 6.6 19 13.2 19 20 C12.73 20 6.46 20 0 20 C0 13.4 0 6.8 0 0 Z " fill="#4692FC" transform="translate(101,297)"/>
<path d="M0 0 C6.27 0 12.54 0 19 0 C19 6.6 19 13.2 19 20 C12.73 20 6.46 20 0 20 C0 13.4 0 6.8 0 0 Z " fill="#D9DEE5" transform="translate(374,219)"/>
<path d="M0 0 C6.27 0 12.54 0 19 0 C19 6.6 19 13.2 19 20 C12.73 20 6.46 20 0 20 C0 13.4 0 6.8 0 0 Z " fill="#4592FD" transform="translate(179,219)"/>
<path d="M0 0 C6.27 0 12.54 0 19 0 C19 6.6 19 13.2 19 20 C12.73 20 6.46 20 0 20 C0 13.4 0 6.8 0 0 Z " fill="#4692FC" transform="translate(140,219)"/>
<path d="M0 0 C6.27 0 12.54 0 19 0 C19 6.6 19 13.2 19 20 C12.73 20 6.46 20 0 20 C0 13.4 0 6.8 0 0 Z " fill="#4692FC" transform="translate(101,219)"/>
<path d="M0 0 C6.27 0 12.54 0 19 0 C19 6.6 19 13.2 19 20 C12.73 20 6.46 20 0 20 C0 13.4 0 6.8 0 0 Z " fill="#DADFE6" transform="translate(374,141)"/>
<path d="M0 0 C6.27 0 12.54 0 19 0 C19 6.6 19 13.2 19 20 C12.73 20 6.46 20 0 20 C0 13.4 0 6.8 0 0 Z " fill="#4793FD" transform="translate(179,141)"/>
<path d="M0 0 C6.27 0 12.54 0 19 0 C19 6.6 19 13.2 19 20 C12.73 20 6.46 20 0 20 C0 13.4 0 6.8 0 0 Z " fill="#4793FD" transform="translate(101,141)"/>
<path d="M0 0 C6.27 0 12.54 0 19 0 C19 6.27 19 12.54 19 19 C12.73 19 6.46 19 0 19 C0 12.73 0 6.46 0 0 Z " fill="#B2D044" transform="translate(120,141)"/>
<path d="M0 0 C5.94 0 11.88 0 18 0 C18 5.94 18 11.88 18 18 C12.06 18 6.12 18 0 18 C0 12.06 0 6.12 0 0 Z " fill="#DBE1E8" transform="translate(375,298)"/>
<path d="M0 0 C0.66 0 1.32 0 2 0 C2 0.66 2 1.32 2 2 C1.34 2 0.68 2 0 2 C0 1.34 0 0.68 0 0 Z " fill="#000000" transform="translate(30,209)"/>
<path d="M0 0 C2 1 2 1 2 1 Z " fill="#000000" transform="translate(42,267)"/>
</svg>
