<?xml version="1.0" encoding="UTF-8"?>
<svg version="1.1" xmlns="http://www.w3.org/2000/svg" width="120" height="120">
<path d="M0 0 C29.7 0 59.4 0 90 0 C90 1.65 90 3.3 90 5 C91.65 5 93.3 5 95 5 C95 6.65 95 8.3 95 10 C96.65 10 98.3 10 100 10 C100 39.7 100 69.4 100 100 C98.35 100 96.7 100 95 100 C95 101.65 95 103.3 95 105 C93.35 105 91.7 105 90 105 C90 106.65 90 108.3 90 110 C60.3 110 30.6 110 0 110 C0 108.35 0 106.7 0 105 C-1.65 105 -3.3 105 -5 105 C-5 103.35 -5 101.7 -5 100 C-6.65 100 -8.3 100 -10 100 C-10 70.3 -10 40.6 -10 10 C-8.35 10 -6.7 10 -5 10 C-5 8.35 -5 6.7 -5 5 C-3.35 5 -1.7 5 0 5 C0 3.35 0 1.7 0 0 Z " fill="#6551CE" transform="translate(15,5)"/>
<path d="M0 0 C4.95 0 9.9 0 15 0 C15 1.65 15 3.3 15 5 C21.6 5 28.2 5 35 5 C35 3.35 35 1.7 35 0 C39.95 0 44.9 0 50 0 C50 1.65 50 3.3 50 5 C51.65 5 53.3 5 55 5 C55 6.65 55 8.3 55 10 C56.65 10 58.3 10 60 10 C60 13.3 60 16.6 60 20 C61.65 20 63.3 20 65 20 C65 31.55 65 43.1 65 55 C63.35 55 61.7 55 60 55 C60 56.65 60 58.3 60 60 C58.35 60 56.7 60 55 60 C55 61.65 55 63.3 55 65 C50.05 65 45.1 65 40 65 C40 61.7 40 58.4 40 55 C30.1 55 20.2 55 10 55 C10 58.3 10 61.6 10 65 C6.7 65 3.4 65 0 65 C0 63.35 0 61.7 0 60 C-3.3 60 -6.6 60 -10 60 C-10 58.35 -10 56.7 -10 55 C-11.65 55 -13.3 55 -15 55 C-15 43.45 -15 31.9 -15 20 C-13.35 20 -11.7 20 -10 20 C-10 16.7 -10 13.4 -10 10 C-8.35 10 -6.7 10 -5 10 C-5 8.35 -5 6.7 -5 5 C-3.35 5 -1.7 5 0 5 C0 3.35 0 1.7 0 0 Z " fill="#EAEEF4" transform="translate(35,30)"/>
<path d="M0 0 C29.7 0 59.4 0 90 0 C90 1.65 90 3.3 90 5 C91.65 5 93.3 5 95 5 C95 19.85 95 34.7 95 50 C93.35 50 91.7 50 90 50 C90 51.65 90 53.3 90 55 C88.35 55 86.7 55 85 55 C85 51.7 85 48.4 85 45 C83.35 45 81.7 45 80 45 C80 41.7 80 38.4 80 35 C78.35 35 76.7 35 75 35 C75 33.35 75 31.7 75 30 C73.35 30 71.7 30 70 30 C70 28.35 70 26.7 70 25 C65.05 25 60.1 25 55 25 C55 26.65 55 28.3 55 30 C48.4 30 41.8 30 35 30 C35 28.35 35 26.7 35 25 C30.05 25 25.1 25 20 25 C20 26.65 20 28.3 20 30 C18.35 30 16.7 30 15 30 C15 31.65 15 33.3 15 35 C13.35 35 11.7 35 10 35 C10 38.3 10 41.6 10 45 C8.35 45 6.7 45 5 45 C5 48.3 5 51.6 5 55 C3.35 55 1.7 55 0 55 C0 53.35 0 51.7 0 50 C-1.65 50 -3.3 50 -5 50 C-5 35.15 -5 20.3 -5 5 C-3.35 5 -1.7 5 0 5 C0 3.35 0 1.7 0 0 Z " fill="#757BF6" transform="translate(15,5)"/>
<path d="M0 0 C1.65 0 3.3 0 5 0 C5 28.05 5 56.1 5 85 C6.65 85 8.3 85 10 85 C10 86.65 10 88.3 10 90 C11.65 90 13.3 90 15 90 C15 91.65 15 93.3 15 95 C41.4 95 67.8 95 95 95 C95 93.35 95 91.7 95 90 C96.65 90 98.3 90 100 90 C100 88.35 100 86.7 100 85 C101.65 85 103.3 85 105 85 C105 56.95 105 28.9 105 0 C106.65 0 108.3 0 110 0 C110 29.7 110 59.4 110 90 C108.35 90 106.7 90 105 90 C105 91.65 105 93.3 105 95 C103.35 95 101.7 95 100 95 C100 96.65 100 98.3 100 100 C70.3 100 40.6 100 10 100 C10 98.35 10 96.7 10 95 C8.35 95 6.7 95 5 95 C5 93.35 5 91.7 5 90 C3.35 90 1.7 90 0 90 C0 60.3 0 30.6 0 0 Z " fill="#162444" transform="translate(5,15)"/>
<path d="M0 0 C1.65 0 3.3 0 5 0 C5 1.65 5 3.3 5 5 C9.95 5 14.9 5 20 5 C20 6.65 20 8.3 20 10 C33.2 10 46.4 10 60 10 C60 8.35 60 6.7 60 5 C64.95 5 69.9 5 75 5 C75 3.35 75 1.7 75 0 C76.65 0 78.3 0 80 0 C80 4.95 80 9.9 80 15 C78.35 15 76.7 15 75 15 C75 16.65 75 18.3 75 20 C73.35 20 71.7 20 70 20 C70 21.65 70 23.3 70 25 C65.05 25 60.1 25 55 25 C55 21.7 55 18.4 55 15 C45.1 15 35.2 15 25 15 C25 18.3 25 21.6 25 25 C21.7 25 18.4 25 15 25 C15 23.35 15 21.7 15 20 C11.7 20 8.4 20 5 20 C5 18.35 5 16.7 5 15 C3.35 15 1.7 15 0 15 C0 10.05 0 5.1 0 0 Z " fill="#C0CBDC" transform="translate(20,70)"/>
<path d="M0 0 C29.7 0 59.4 0 90 0 C90 1.65 90 3.3 90 5 C91.65 5 93.3 5 95 5 C95 8.3 95 11.6 95 15 C93.35 15 91.7 15 90 15 C90 13.35 90 11.7 90 10 C88.35 10 86.7 10 85 10 C85 8.35 85 6.7 85 5 C58.6 5 32.2 5 5 5 C5 6.65 5 8.3 5 10 C3.35 10 1.7 10 0 10 C0 11.65 0 13.3 0 15 C-1.65 15 -3.3 15 -5 15 C-5 11.7 -5 8.4 -5 5 C-3.35 5 -1.7 5 0 5 C0 3.35 0 1.7 0 0 Z " fill="#6551CE" transform="translate(15,5)"/>
<path d="M0 0 C1.65 0 3.3 0 5 0 C5 29.7 5 59.4 5 90 C3.35 90 1.7 90 0 90 C0 91.65 0 93.3 0 95 C-3.3 95 -6.6 95 -10 95 C-10 93.35 -10 91.7 -10 90 C-8.35 90 -6.7 90 -5 90 C-5 88.35 -5 86.7 -5 85 C-3.35 85 -1.7 85 0 85 C0 56.95 0 28.9 0 0 Z " fill="#162444" transform="translate(110,15)"/>
<path d="M0 0 C29.7 0 59.4 0 90 0 C90 1.65 90 3.3 90 5 C60.3 5 30.6 5 0 5 C0 3.35 0 1.7 0 0 Z " fill="#162444" transform="translate(15,110)"/>
<path d="M0 0 C23.1 0 46.2 0 70 0 C70 1.65 70 3.3 70 5 C46.9 5 23.8 5 0 5 C0 3.35 0 1.7 0 0 Z " fill="#AE99FF" transform="translate(25,10)"/>
<path d="M0 0 C1.65 0 3.3 0 5 0 C5 16.5 5 33 5 50 C3.35 50 1.7 50 0 50 C0 33.5 0 17 0 0 Z " fill="#103F91" transform="translate(110,15)"/>
<path d="M0 0 C1.65 0 3.3 0 5 0 C5 16.5 5 33 5 50 C3.35 50 1.7 50 0 50 C0 33.5 0 17 0 0 Z " fill="#103F91" transform="translate(5,15)"/>
<path d="M0 0 C9.9 0 19.8 0 30 0 C30 1.65 30 3.3 30 5 C20.1 5 10.2 5 0 5 C0 3.35 0 1.7 0 0 Z " fill="#103F91" transform="translate(45,85)"/>
<path d="M0 0 C9.9 0 19.8 0 30 0 C30 1.65 30 3.3 30 5 C20.1 5 10.2 5 0 5 C0 3.35 0 1.7 0 0 Z " fill="#C0CBDC" transform="translate(45,80)"/>
<path d="M0 0 C3.3 0 6.6 0 10 0 C10 4.95 10 9.9 10 15 C6.7 15 3.4 15 0 15 C0 10.05 0 5.1 0 0 Z " fill="#6551CE" transform="translate(70,55)"/>
<path d="M0 0 C3.3 0 6.6 0 10 0 C10 4.95 10 9.9 10 15 C6.7 15 3.4 15 0 15 C0 10.05 0 5.1 0 0 Z " fill="#6551CE" transform="translate(40,55)"/>
<path d="M0 0 C4.95 0 9.9 0 15 0 C15 1.65 15 3.3 15 5 C13.35 5 11.7 5 10 5 C10 6.65 10 8.3 10 10 C5.05 10 0.1 10 -5 10 C-5 8.35 -5 6.7 -5 5 C-3.35 5 -1.7 5 0 5 C0 3.35 0 1.7 0 0 Z " fill="#FFFFFF" transform="translate(35,40)"/>
<path d="M0 0 C1.65 0 3.3 0 5 0 C5 6.6 5 13.2 5 20 C3.35 20 1.7 20 0 20 C0 13.4 0 6.8 0 0 Z " fill="#143464" transform="translate(110,65)"/>
<path d="M0 0 C1.65 0 3.3 0 5 0 C5 6.6 5 13.2 5 20 C3.35 20 1.7 20 0 20 C0 13.4 0 6.8 0 0 Z " fill="#143464" transform="translate(5,65)"/>
<path d="M0 0 C3.3 0 6.6 0 10 0 C10 1.65 10 3.3 10 5 C8.35 5 6.7 5 5 5 C5 6.65 5 8.3 5 10 C3.35 10 1.7 10 0 10 C0 6.7 0 3.4 0 0 Z " fill="#8B9BB4" transform="translate(75,80)"/>
<path d="M0 0 C3.3 0 6.6 0 10 0 C10 3.3 10 6.6 10 10 C8.35 10 6.7 10 5 10 C5 8.35 5 6.7 5 5 C3.35 5 1.7 5 0 5 C0 3.35 0 1.7 0 0 Z " fill="#8B9BB4" transform="translate(35,80)"/>
<path d="M0 0 C3.3 0 6.6 0 10 0 C10 1.65 10 3.3 10 5 C8.35 5 6.7 5 5 5 C5 6.65 5 8.3 5 10 C3.35 10 1.7 10 0 10 C0 6.7 0 3.4 0 0 Z " fill="#6551CE" transform="translate(10,10)"/>
<path d="M0 0 C3.3 0 6.6 0 10 0 C10 1.65 10 3.3 10 5 C6.7 5 3.4 5 0 5 C0 3.35 0 1.7 0 0 Z " fill="#162444" transform="translate(100,105)"/>
<path d="M0 0 C3.3 0 6.6 0 10 0 C10 1.65 10 3.3 10 5 C6.7 5 3.4 5 0 5 C0 3.35 0 1.7 0 0 Z " fill="#103F91" transform="translate(80,95)"/>
<path d="M0 0 C3.3 0 6.6 0 10 0 C10 1.65 10 3.3 10 5 C6.7 5 3.4 5 0 5 C0 3.35 0 1.7 0 0 Z " fill="#103F91" transform="translate(30,95)"/>
<path d="M0 0 C3.3 0 6.6 0 10 0 C10 1.65 10 3.3 10 5 C6.7 5 3.4 5 0 5 C0 3.35 0 1.7 0 0 Z " fill="#FFFFFF" transform="translate(70,70)"/>
<path d="M0 0 C3.3 0 6.6 0 10 0 C10 1.65 10 3.3 10 5 C6.7 5 3.4 5 0 5 C0 3.35 0 1.7 0 0 Z " fill="#FFFFFF" transform="translate(40,70)"/>
<path d="M0 0 C3.3 0 6.6 0 10 0 C10 1.65 10 3.3 10 5 C6.7 5 3.4 5 0 5 C0 3.35 0 1.7 0 0 Z " fill="#103F91" transform="translate(70,55)"/>
<path d="M0 0 C3.3 0 6.6 0 10 0 C10 1.65 10 3.3 10 5 C6.7 5 3.4 5 0 5 C0 3.35 0 1.7 0 0 Z " fill="#103F91" transform="translate(40,55)"/>
<path d="M0 0 C1.65 0 3.3 0 5 0 C5 3.3 5 6.6 5 10 C3.35 10 1.7 10 0 10 C0 6.7 0 3.4 0 0 Z " fill="#C0CBDC" transform="translate(95,50)"/>
<path d="M0 0 C1.65 0 3.3 0 5 0 C5 3.3 5 6.6 5 10 C3.35 10 1.7 10 0 10 C0 6.7 0 3.4 0 0 Z " fill="#C0CBDC" transform="translate(20,50)"/>
<path d="M0 0 C1.65 0 3.3 0 5 0 C5 1.65 5 3.3 5 5 C3.35 5 1.7 5 0 5 C0 3.35 0 1.7 0 0 Z " fill="#103F91" transform="translate(100,105)"/>
<path d="M0 0 C1.65 0 3.3 0 5 0 C5 1.65 5 3.3 5 5 C3.35 5 1.7 5 0 5 C0 3.35 0 1.7 0 0 Z " fill="#103F91" transform="translate(15,105)"/>
<path d="M0 0 C1.65 0 3.3 0 5 0 C5 1.65 5 3.3 5 5 C3.35 5 1.7 5 0 5 C0 3.35 0 1.7 0 0 Z " fill="#162444" transform="translate(10,105)"/>
<path d="M0 0 C1.65 0 3.3 0 5 0 C5 1.65 5 3.3 5 5 C3.35 5 1.7 5 0 5 C0 3.35 0 1.7 0 0 Z " fill="#103F91" transform="translate(105,100)"/>
<path d="M0 0 C1.65 0 3.3 0 5 0 C5 1.65 5 3.3 5 5 C3.35 5 1.7 5 0 5 C0 3.35 0 1.7 0 0 Z " fill="#103F91" transform="translate(10,100)"/>
<path d="M0 0 C1.65 0 3.3 0 5 0 C5 1.65 5 3.3 5 5 C3.35 5 1.7 5 0 5 C0 3.35 0 1.7 0 0 Z " fill="#103F91" transform="translate(90,90)"/>
<path d="M0 0 C1.65 0 3.3 0 5 0 C5 1.65 5 3.3 5 5 C3.35 5 1.7 5 0 5 C0 3.35 0 1.7 0 0 Z " fill="#8B9BB4" transform="translate(85,90)"/>
<path d="M0 0 C1.65 0 3.3 0 5 0 C5 1.65 5 3.3 5 5 C3.35 5 1.7 5 0 5 C0 3.35 0 1.7 0 0 Z " fill="#8B9BB4" transform="translate(30,90)"/>
<path d="M0 0 C1.65 0 3.3 0 5 0 C5 1.65 5 3.3 5 5 C3.35 5 1.7 5 0 5 C0 3.35 0 1.7 0 0 Z " fill="#103F91" transform="translate(25,90)"/>
<path d="M0 0 C1.65 0 3.3 0 5 0 C5 1.65 5 3.3 5 5 C3.35 5 1.7 5 0 5 C0 3.35 0 1.7 0 0 Z " fill="#C0CBDC" transform="translate(80,60)"/>
<path d="M0 0 C1.65 0 3.3 0 5 0 C5 1.65 5 3.3 5 5 C3.35 5 1.7 5 0 5 C0 3.35 0 1.7 0 0 Z " fill="#C0CBDC" transform="translate(65,60)"/>
<path d="M0 0 C1.65 0 3.3 0 5 0 C5 1.65 5 3.3 5 5 C3.35 5 1.7 5 0 5 C0 3.35 0 1.7 0 0 Z " fill="#C0CBDC" transform="translate(50,60)"/>
<path d="M0 0 C1.65 0 3.3 0 5 0 C5 1.65 5 3.3 5 5 C3.35 5 1.7 5 0 5 C0 3.35 0 1.7 0 0 Z " fill="#C0CBDC" transform="translate(35,60)"/>
<path d="M0 0 C1.65 0 3.3 0 5 0 C5 1.65 5 3.3 5 5 C3.35 5 1.7 5 0 5 C0 3.35 0 1.7 0 0 Z " fill="#C0CBDC" transform="translate(90,40)"/>
<path d="M0 0 C1.65 0 3.3 0 5 0 C5 1.65 5 3.3 5 5 C3.35 5 1.7 5 0 5 C0 3.35 0 1.7 0 0 Z " fill="#C0CBDC" transform="translate(25,40)"/>
<path d="M0 0 C1.65 0 3.3 0 5 0 C5 1.65 5 3.3 5 5 C3.35 5 1.7 5 0 5 C0 3.35 0 1.7 0 0 Z " fill="#C0CBDC" transform="translate(70,30)"/>
<path d="M0 0 C1.65 0 3.3 0 5 0 C5 1.65 5 3.3 5 5 C3.35 5 1.7 5 0 5 C0 3.35 0 1.7 0 0 Z " fill="#C0CBDC" transform="translate(45,30)"/>
<path d="M0 0 C1.65 0 3.3 0 5 0 C5 1.65 5 3.3 5 5 C3.35 5 1.7 5 0 5 C0 3.35 0 1.7 0 0 Z " fill="#6551CE" transform="translate(105,15)"/>
<path d="M0 0 C1.65 0 3.3 0 5 0 C5 1.65 5 3.3 5 5 C3.35 5 1.7 5 0 5 C0 3.35 0 1.7 0 0 Z " fill="#6551CE" transform="translate(10,15)"/>
<path d="M0 0 C1.65 0 3.3 0 5 0 C5 1.65 5 3.3 5 5 C3.35 5 1.7 5 0 5 C0 3.35 0 1.7 0 0 Z " fill="#103F91" transform="translate(105,10)"/>
<path d="M0 0 C1.65 0 3.3 0 5 0 C5 1.65 5 3.3 5 5 C3.35 5 1.7 5 0 5 C0 3.35 0 1.7 0 0 Z " fill="#6551CE" transform="translate(100,10)"/>
<path d="M0 0 C1.65 0 3.3 0 5 0 C5 1.65 5 3.3 5 5 C3.35 5 1.7 5 0 5 C0 3.35 0 1.7 0 0 Z " fill="#103F91" transform="translate(10,10)"/>
<path d="M0 0 C1.65 0 3.3 0 5 0 C5 1.65 5 3.3 5 5 C3.35 5 1.7 5 0 5 C0 3.35 0 1.7 0 0 Z " fill="#103F91" transform="translate(100,5)"/>
<path d="M0 0 C1.65 0 3.3 0 5 0 C5 1.65 5 3.3 5 5 C3.35 5 1.7 5 0 5 C0 3.35 0 1.7 0 0 Z " fill="#103F91" transform="translate(15,5)"/>
</svg>
