<?xml version="1.0" encoding="UTF-8"?>
<svg version="1.1" xmlns="http://www.w3.org/2000/svg" width="512" height="512">
<path d="M0 0 C45.87 0 91.74 0 139 0 C139 6.93 139 13.86 139 21 C146.26 21 153.52 21 161 21 C161 27.93 161 34.86 161 42 C167.93 42 174.86 42 182 42 C182 49.26 182 56.52 182 64 C188.93 64 195.86 64 203 64 C203 109.87 203 155.74 203 203 C196.07 203 189.14 203 182 203 C182 210.26 182 217.52 182 225 C175.07 225 168.14 225 161 225 C161 231.93 161 238.86 161 246 C153.74 246 146.48 246 139 246 C139 253.26 139 260.52 139 268 C86.53 268 34.06 268 -20 268 C-20 275.26 -20 282.52 -20 290 C-26.93 290 -33.86 290 -41 290 C-41 296.93 -41 303.86 -41 311 C-48.26 311 -55.52 311 -63 311 C-63 317.93 -63 324.86 -63 332 C-77.85 332 -92.7 332 -108 332 C-108 325.07 -108 318.14 -108 311 C-114.93 311 -121.86 311 -129 311 C-129 296.15 -129 281.3 -129 266 C-122.07 266 -115.14 266 -108 266 C-108 258.74 -108 251.48 -108 244 C-101.07 244 -94.14 244 -87 244 C-87 237.07 -87 230.14 -87 223 C-79.74 223 -72.48 223 -65 223 C-65 170.53 -65 118.06 -65 64 C-54.605 63.505 -54.605 63.505 -44 63 C-44.03953271 56.83711407 -44.03953271 56.83711407 -44.09008789 50.67431641 C-44.09258545 49.90780762 -44.09508301 49.14129883 -44.09765625 48.3515625 C-44.10289307 47.56604004 -44.10812988 46.78051758 -44.11352539 45.97119141 C-44 44 -44 44 -43 42 C-36.07 42 -29.14 42 -22 42 C-22 35.07 -22 28.14 -22 21 C-14.74 21 -7.48 21 0 21 C0 14.07 0 7.14 0 0 Z " fill="#FD529F" transform="translate(205,94)"/>
<path d="M0 0 C45.87 0 91.74 0 139 0 C139 6.93 139 13.86 139 21 C146.26 21 153.52 21 161 21 C161 27.93 161 34.86 161 42 C167.93 42 174.86 42 182 42 C182 49.26 182 56.52 182 64 C188.93 64 195.86 64 203 64 C203 109.87 203 155.74 203 203 C196.07 203 189.14 203 182 203 C182 210.26 182 217.52 182 225 C175.07 225 168.14 225 161 225 C161 231.93 161 238.86 161 246 C153.74 246 146.48 246 139 246 C139 253.26 139 260.52 139 268 C86.53 268 34.06 268 -20 268 C-20 275.26 -20 282.52 -20 290 C-26.93 290 -33.86 290 -41 290 C-41 296.93 -41 303.86 -41 311 C-48.26 311 -55.52 311 -63 311 C-63 317.93 -63 324.86 -63 332 C-77.85 332 -92.7 332 -108 332 C-108 325.07 -108 318.14 -108 311 C-114.93 311 -121.86 311 -129 311 C-129 296.15 -129 281.3 -129 266 C-122.07 266 -115.14 266 -108 266 C-108 258.74 -108 251.48 -108 244 C-101.07 244 -94.14 244 -87 244 C-87 237.07 -87 230.14 -87 223 C-79.74 223 -72.48 223 -65 223 C-65 170.53 -65 118.06 -65 64 C-54.605 63.505 -54.605 63.505 -44 63 C-44.03953271 56.83711407 -44.03953271 56.83711407 -44.09008789 50.67431641 C-44.09258545 49.90780762 -44.09508301 49.14129883 -44.09765625 48.3515625 C-44.10289307 47.56604004 -44.10812988 46.78051758 -44.11352539 45.97119141 C-44 44 -44 44 -43 42 C-36.07 42 -29.14 42 -22 42 C-22 35.07 -22 28.14 -22 21 C-14.74 21 -7.48 21 0 21 C0 14.07 0 7.14 0 0 Z M1 22 C1 28.93 1 35.86 1 43 C-6.26 43 -13.52 43 -21 43 C-21 50.26 -21 57.52 -21 65 C-27.93 65 -34.86 65 -42 65 C-42 117.47 -42 169.94 -42 224 C-49.26 224 -56.52 224 -64 224 C-64 231.26 -64 238.52 -64 246 C-70.93 246 -77.86 246 -85 246 C-85 252.93 -85 259.86 -85 267 C-92.26 267 -99.52 267 -107 267 C-107 281.19 -107 295.38 -107 310 C-92.81 310 -78.62 310 -64 310 C-64 302.74 -64 295.48 -64 288 C-57.07 288 -50.14 288 -43 288 C-43 281.07 -43 274.14 -43 267 C-35.74 267 -28.48 267 -21 267 C-21 259.74 -21 252.48 -21 245 C31.47 245 83.94 245 138 245 C138 238.07 138 231.14 138 224 C145.26 224 152.52 224 160 224 C160 216.74 160 209.48 160 202 C166.93 202 173.86 202 181 202 C181 156.79 181 111.58 181 65 C173.74 65 166.48 65 159 65 C159 58.07 159 51.14 159 44 C152.07 44 145.14 44 138 44 C138 36.74 138 29.48 138 22 C92.79 22 47.58 22 1 22 Z " fill="#43152A" transform="translate(205,94)"/>
<path d="M0 0 C30.69 0 61.38 0 93 0 C93 7.26 93 14.52 93 22 C100.26 22 107.52 22 115 22 C115 52.69 115 83.38 115 115 C107.74 115 100.48 115 93 115 C93 122.26 93 129.52 93 137 C62.31 137 31.62 137 0 137 C0 129.74 0 122.48 0 115 C-7.26 115 -14.52 115 -22 115 C-22 84.31 -22 53.62 -22 22 C-14.74 22 -7.48 22 0 22 C0 14.74 0 7.48 0 0 Z " fill="#82C8FE" transform="translate(228,159)"/>
<path d="M0 0 C31.35 0 62.7 0 95 0 C95 7.26 95 14.52 95 22 C101.93 22 108.86 22 116 22 C116 28.93 116 35.86 116 43 C123.26 43 130.52 43 138 43 C138 74.35 138 105.7 138 138 C130.74 138 123.48 138 116 138 C116 145.26 116 152.52 116 160 C109.07 160 102.14 160 95 160 C95 166.93 95 173.86 95 181 C63.65 181 32.3 181 0 181 C0 173.74 0 166.48 0 159 C-6.93 159 -13.86 159 -21 159 C-21 152.07 -21 145.14 -21 138 C-28.26 138 -35.52 138 -43 138 C-43 106.65 -43 75.3 -43 43 C-36.07 43 -29.14 43 -22 43 C-22 36.07 -22 29.14 -22 22 C-14.74 22 -7.48 22 0 22 C0 14.74 0 7.48 0 0 Z M1 22 C1 29.26 1 36.52 1 44 C-6.26 44 -13.52 44 -21 44 C-21 74.69 -21 105.38 -21 137 C-13.74 137 -6.48 137 1 137 C1 144.26 1 151.52 1 159 C31.69 159 62.38 159 94 159 C94 151.74 94 144.48 94 137 C101.26 137 108.52 137 116 137 C116 106.31 116 75.62 116 44 C108.74 44 101.48 44 94 44 C94 36.74 94 29.48 94 22 C63.31 22 32.62 22 1 22 Z " fill="#52354E" transform="translate(227,137)"/>
<path d="M0 0 C45.54 0 91.08 0 138 0 C138 6.93 138 13.86 138 21 C144.93 21 151.86 21 159 21 C159 28.26 159 35.52 159 43 C151.74 43 144.48 43 137 43 C137 35.74 137 28.48 137 21 C91.79 21 46.58 21 0 21 C0 14.07 0 7.14 0 0 Z " fill="#010001" transform="translate(206,94)"/>
<path d="M0 0 C52.14 0 104.28 0 158 0 C158 6.93 158 13.86 158 21 C105.86 21 53.72 21 0 21 C0 14.07 0 7.14 0 0 Z " fill="#010000" transform="translate(185,340)"/>
<path d="M0 0 C6.93 0 13.86 0 21 0 C21 52.14 21 104.28 21 158 C14.07 158 7.14 158 0 158 C0 105.86 0 53.72 0 0 Z " fill="#010000" transform="translate(141,159)"/>
<path d="M0 0 C6.93 0 13.86 0 21 0 C21 45.21 21 90.42 21 137 C14.07 137 7.14 137 0 137 C0 91.79 0 46.58 0 0 Z " fill="#000000" transform="translate(387,159)"/>
<path d="M0 0 C6.93 0 13.86 0 21 0 C21 30.69 21 61.38 21 93 C14.07 93 7.14 93 0 93 C0 62.31 0 31.62 0 0 Z " fill="#010101" transform="translate(343,181)"/>
<path d="M0 0 C30.69 0 61.38 0 93 0 C93 6.93 93 13.86 93 21 C62.31 21 31.62 21 0 21 C0 14.07 0 7.14 0 0 Z " fill="#010101" transform="translate(228,138)"/>
<path d="M0 0 C30.69 0 61.38 0 93 0 C93 6.6 93 13.2 93 20 C62.31 20 31.62 20 0 20 C0 13.4 0 6.8 0 0 Z " fill="#000000" transform="translate(228,297)"/>
<path d="M0 0 C6.6 0 13.2 0 20 0 C20 30.69 20 61.38 20 93 C13.4 93 6.8 93 0 93 C0 62.31 0 31.62 0 0 Z " fill="#000000" transform="translate(185,181)"/>
<path d="M0 0 C0.33 0 0.66 0 1 0 C1 6.93 1 13.86 1 21 C46.21 21 91.42 21 138 21 C138 21.33 138 21.66 138 22 C92.79 22 47.58 22 1 22 C1 28.93 1 35.86 1 43 C-6.26 43 -13.52 43 -21 43 C-21 50.26 -21 57.52 -21 65 C-27.93 65 -34.86 65 -42 65 C-42 117.47 -42 169.94 -42 224 C-49.26 224 -56.52 224 -64 224 C-64 223.67 -64 223.34 -64 223 C-57.07 223 -50.14 223 -43 223 C-43.01474869 220.76191559 -43.02949738 218.52383118 -43.04469299 216.21792603 C-43.18288628 195.17448945 -43.31551227 174.13102311 -43.4429636 153.08751869 C-43.50862977 142.26763631 -43.57619592 131.44777195 -43.64819336 120.62792969 C-43.71092174 111.20033282 -43.77012763 101.77272163 -43.82505554 92.34507596 C-43.8542793 87.35053945 -43.8852995 82.35602833 -43.92053413 77.3615303 C-43.95361069 72.66506336 -43.98199411 67.96859193 -44.00670624 63.27207375 C-44.01663819 61.54424127 -44.02831624 59.81641786 -44.04183006 58.0886097 C-44.05996132 55.73775237 -44.07192934 53.38694374 -44.08229065 51.03604126 C-44.09058679 49.71787729 -44.09888292 48.39971333 -44.10743046 47.041605 C-44 44 -44 44 -43 42 C-36.07 42 -29.14 42 -22 42 C-22 35.07 -22 28.14 -22 21 C-14.74 21 -7.48 21 0 21 C0 14.07 0 7.14 0 0 Z " fill="#6D4155" transform="translate(205,94)"/>
<path d="M0 0 C6.93 0 13.86 0 21 0 C21.09556204 14.04762035 20.79567319 27.97625999 20 42 C5.97625999 42.79567319 -7.95237965 43.09556204 -22 43 C-22 35.74 -22 28.48 -22 21 C-14.74 21 -7.48 21 0 21 C0 14.07 0 7.14 0 0 Z " fill="#FE55A1" transform="translate(185,138)"/>
<path d="M0 0 C14.19 0 28.38 0 43 0 C43 6.93 43 13.86 43 21 C28.81 21 14.62 21 0 21 C0 14.07 0 7.14 0 0 Z " fill="#000000" transform="translate(98,405)"/>
<path d="M0 0 C6.93 0 13.86 0 21 0 C21 14.19 21 28.38 21 43 C14.07 43 7.14 43 0 43 C0 28.81 0 14.62 0 0 Z " fill="#000000" transform="translate(76,361)"/>
<path d="M0 0 C7.26 0 14.52 0 22 0 C22 0.33 22 0.66 22 1 C15.07 1 8.14 1 1 1 C1 60.4 1 119.8 1 181 C-6.26 181 -13.52 181 -21 181 C-21 173.74 -21 166.48 -21 159 C-14.07 159 -7.14 159 0 159 C0 106.53 0 54.06 0 0 Z " fill="#0F090C" transform="translate(140,158)"/>
<path d="M0 0 C14.19 0 28.38 0 43 0 C43 7.26 43 14.52 43 22 C36.07 22 29.14 22 22 22 C22 15.07 22 8.14 22 1 C15.07 1 8.14 1 1 1 C1 7.93 1 14.86 1 22 C0.67 22 0.34 22 0 22 C0 14.74 0 7.48 0 0 Z " fill="#F65CA1" transform="translate(184,137)"/>
<path d="M0 0 C7.26 0 14.52 0 22 0 C22 7.26 22 14.52 22 22 C14.74 22 7.48 22 0 22 C0 14.74 0 7.48 0 0 Z " fill="#FDF5F9" transform="translate(141,318)"/>
<path d="M0 0 C7.26 0 14.52 0 22 0 C22 6.93 22 13.86 22 21 C14.74 21 7.48 21 0 21 C0 14.07 0 7.14 0 0 Z " fill="#010001" transform="translate(163,362)"/>
<path d="M0 0 C6.93 0 13.86 0 21 0 C21 7.26 21 14.52 21 22 C14.07 22 7.14 22 0 22 C0 14.74 0 7.48 0 0 Z " fill="#FBFCFD" transform="translate(228,159)"/>
<path d="M0 0 C6.93 0 13.86 0 21 0 C21 7.26 21 14.52 21 22 C14.07 22 7.14 22 0 22 C0 14.74 0 7.48 0 0 Z " fill="#FDFAFB" transform="translate(163,159)"/>
<path d="M0 0 C6.93 0 13.86 0 21 0 C21 7.26 21 14.52 21 22 C14.07 22 7.14 22 0 22 C0 14.74 0 7.48 0 0 Z " fill="#040303" transform="translate(163,137)"/>
<path d="M0 0 C7.26 0 14.52 0 22 0 C22 6.93 22 13.86 22 21 C14.74 21 7.48 21 0 21 C0 14.07 0 7.14 0 0 Z " fill="#FDF9FB" transform="translate(206,116)"/>
<path d="M0 0 C6.93 0 13.86 0 21 0 C21 6.93 21 13.86 21 21 C14.07 21 7.14 21 0 21 C0 14.07 0 7.14 0 0 Z " fill="#020001" transform="translate(141,383)"/>
<path d="M0 0 C6.93 0 13.86 0 21 0 C21 6.93 21 13.86 21 21 C14.07 21 7.14 21 0 21 C0 14.07 0 7.14 0 0 Z " fill="#FCFCFC" transform="translate(98,361)"/>
<path d="M0 0 C6.93 0 13.86 0 21 0 C21 6.93 21 13.86 21 21 C14.07 21 7.14 21 0 21 C0 14.07 0 7.14 0 0 Z " fill="#FFFCFD" transform="translate(120,340)"/>
<path d="M0 0 C6.93 0 13.86 0 21 0 C21 6.93 21 13.86 21 21 C14.07 21 7.14 21 0 21 C0 14.07 0 7.14 0 0 Z " fill="#020202" transform="translate(98,340)"/>
<path d="M0 0 C6.93 0 13.86 0 21 0 C21 6.93 21 13.86 21 21 C14.07 21 7.14 21 0 21 C0 14.07 0 7.14 0 0 Z " fill="#010000" transform="translate(365,297)"/>
<path d="M0 0 C6.93 0 13.86 0 21 0 C21 6.93 21 13.86 21 21 C14.07 21 7.14 21 0 21 C0 14.07 0 7.14 0 0 Z " fill="#010102" transform="translate(322,275)"/>
<path d="M0 0 C6.93 0 13.86 0 21 0 C21 6.93 21 13.86 21 21 C14.07 21 7.14 21 0 21 C0 14.07 0 7.14 0 0 Z " fill="#010102" transform="translate(206,275)"/>
<path d="M0 0 C6.93 0 13.86 0 21 0 C21 6.93 21 13.86 21 21 C14.07 21 7.14 21 0 21 C0 14.07 0 7.14 0 0 Z " fill="#FDFDFD" transform="translate(206,181)"/>
<path d="M0 0 C6.93 0 13.86 0 21 0 C21 6.93 21 13.86 21 21 C14.07 21 7.14 21 0 21 C0 14.07 0 7.14 0 0 Z " fill="#010102" transform="translate(322,159)"/>
<path d="M0 0 C6.93 0 13.86 0 21 0 C21 6.93 21 13.86 21 21 C14.07 21 7.14 21 0 21 C0 14.07 0 7.14 0 0 Z " fill="#020202" transform="translate(206,159)"/>
<path d="M0 0 C6.93 0 13.86 0 21 0 C21 6.93 21 13.86 21 21 C14.07 21 7.14 21 0 21 C0 14.07 0 7.14 0 0 Z " fill="#020001" transform="translate(365,137)"/>
<path d="M0 0 C6.93 0 13.86 0 21 0 C21 6.93 21 13.86 21 21 C14.07 21 7.14 21 0 21 C0 14.07 0 7.14 0 0 Z " fill="#FEFBFD" transform="translate(185,138)"/>
<path d="M0 0 C6.93 0 13.86 0 21 0 C21 6.93 21 13.86 21 21 C14.07 21 7.14 21 0 21 C0 14.07 0 7.14 0 0 Z " fill="#010101" transform="translate(184,116)"/>
<path d="M0 0 C0.33 0 0.66 0 1 0 C1 7.26 1 14.52 1 22 C8.26 22 15.52 22 23 22 C23 22.33 23 22.66 23 23 C16.07 23 9.14 23 2 23 C2 29.93 2 36.86 2 44 C1.67 44 1.34 44 1 44 C1 37.07 1 30.14 1 23 C-5.93 23 -12.86 23 -20 23 C-20 44.12 -20 65.24 -20 87 C1.12 87 22.24 87 44 87 C44 80.07 44 73.14 44 66 C37.07 66 30.14 66 23 66 C23 65.67 23 65.34 23 65 C29.93 65 36.86 65 44 65 C44 58.07 44 51.14 44 44 C44.33 44 44.66 44 45 44 C45 51.26 45 58.52 45 66 C52.26 66 59.52 66 67 66 C67 66.33 67 66.66 67 67 C60.07 67 53.14 67 46 67 C46 73.93 46 80.86 46 88 C38.74 88 31.48 88 24 88 C24 94.93 24 101.86 24 109 C23.67 109 23.34 109 23 109 C23 102.07 23 95.14 23 88 C8.81 88 -5.38 88 -20 88 C-20 94.93 -20 101.86 -20 109 C-20.33 109 -20.66 109 -21 109 C-21 102.07 -21 95.14 -21 88 C-27.93 88 -34.86 88 -42 88 C-42 87.67 -42 87.34 -42 87 C-35.07 87 -28.14 87 -21 87 C-21 72.81 -21 58.62 -21 44 C-27.93 44 -34.86 44 -42 44 C-42 43.67 -42 43.34 -42 43 C-35.07 43 -28.14 43 -21 43 C-21 35.74 -21 28.48 -21 21 C-14.07 21 -7.14 21 0 21 C0 14.07 0 7.14 0 0 Z " fill="#75455B" transform="translate(118,317)"/>
<path d="M0 0 C6.6 0 13.2 0 20 0 C20 6.93 20 13.86 20 21 C13.4 21 6.8 21 0 21 C0 14.07 0 7.14 0 0 Z " fill="#000000" transform="translate(344,318)"/>
<path d="M0 0 C0.33 0 0.66 0 1 0 C1 6.93 1 13.86 1 21 C7.93 21 14.86 21 22 21 C22 28.26 22 35.52 22 43 C28.93 43 35.86 43 43 43 C43 43.33 43 43.66 43 44 C36.07 44 29.14 44 22 44 C22 89.21 22 134.42 22 181 C28.93 181 35.86 181 43 181 C43 181.33 43 181.66 43 182 C36.07 182 29.14 182 22 182 C22 189.26 22 196.52 22 204 C15.07 204 8.14 204 1 204 C1 210.93 1 217.86 1 225 C0.67 225 0.34 225 0 225 C0 217.74 0 210.48 0 203 C6.93 203 13.86 203 21 203 C21 196.07 21 189.14 21 182 C14.07 182 7.14 182 0 182 C0 181.67 0 181.34 0 181 C6.93 181 13.86 181 21 181 C21 135.79 21 90.58 21 44 C13.74 44 6.48 44 -1 44 C-1 37.07 -1 30.14 -1 23 C-7.93 23 -14.86 23 -22 23 C-22 22.67 -22 22.34 -22 22 C-14.74 22 -7.48 22 0 22 C0 14.74 0 7.48 0 0 Z M0 22 C0 28.93 0 35.86 0 43 C6.93 43 13.86 43 21 43 C21 36.07 21 29.14 21 22 C14.07 22 7.14 22 0 22 Z " fill="#64203E" transform="translate(365,115)"/>
<path d="M0 0 C0.33 0 0.66 0 1 0 C1.92142456 14.4314726 1.95899674 28.57078758 1 43 C0.67 43 0.34 43 0 43 C0 36.07 0 29.14 0 22 C-6.93 22 -13.86 22 -21 22 C-21 21.67 -21 21.34 -21 21 C-14.07 21 -7.14 21 0 21 C0 14.07 0 7.14 0 0 Z " fill="#4B182F" transform="translate(97,383)"/>
<path d="M0 0 C0.66 0 1.32 0 2 0 C2 0.66 2 1.32 2 2 C1.34 2 0.68 2 0 2 C0 1.34 0 0.68 0 0 Z " fill="#000000" transform="translate(30,209)"/>
<path d="M0 0 C2 1 2 1 2 1 Z " fill="#000000" transform="translate(42,267)"/>
</svg>
