<?xml version="1.0" encoding="UTF-8"?>
<svg version="1.1" xmlns="http://www.w3.org/2000/svg" width="20" height="20">
<path d="M0 0 C6.6 0 13.2 0 20 0 C20 6.6 20 13.2 20 20 C13.4 20 6.8 20 0 20 C0 13.4 0 6.8 0 0 Z " fill="#35131C" transform="translate(0,0)"/>
<path d="M0 0 C1.32 0.33 2.64 0.66 4 1 C4 2.65 4 4.3 4 6 C4.66 6 5.32 6 6 6 C6.66 4.02 7.32 2.04 8 0 C8.66 0 9.32 0 10 0 C12.13843222 5.21242854 12.16803599 9.45481226 12 15 C9.03 15 6.06 15 3 15 C3 13.02 3 11.04 3 9 C1.68 9 0.36 9 -1 9 C-1 10.98 -1 12.96 -1 15 C-1.33 15 -1.66 15 -2 15 C-2.21755666 9.5610835 -2.10428384 5.12919186 0 0 Z " fill="#68AAE1" transform="translate(5,1)"/>
<path d="M0 0 C0.66 0 1.32 0 2 0 C1.67 2.64 1.34 5.28 1 8 C2.32 8 3.64 8 5 8 C5 10.31 5 12.62 5 15 C8.63 15 12.26 15 16 15 C16 15.66 16 16.32 16 17 C10.06 17 4.12 17 -2 17 C-3.23689062 14.52621876 -3.13310087 12.82084683 -3.125 10.0625 C-3.12757812 9.18722656 -3.13015625 8.31195313 -3.1328125 7.41015625 C-3 5 -3 5 -2 2 C-1.34 2 -0.68 2 0 2 C0 1.34 0 0.68 0 0 Z " fill="#4B2D38" transform="translate(3,2)"/>
<path d="M0 0 C6.6 0 13.2 0 20 0 C20 2.31 20 4.62 20 7 C19.67 6.01 19.34 5.02 19 4 C18.34 4 17.68 4 17 4 C17 3.01 17 2.02 17 1 C15.03243548 1.03122943 15.03243548 1.03122943 13 2 C11.6954344 4.99615946 11.6954344 4.99615946 11 8 C10.01 7.67 9.02 7.34 8 7 C8 5.35 8 3.7 8 2 C6.35 2 4.7 2 3 2 C3 2.66 3 3.32 3 4 C2.34 4 1.68 4 1 4 C0.67 4.99 0.34 5.98 0 7 C0 4.69 0 2.38 0 0 Z " fill="#24050A" transform="translate(0,0)"/>
<path d="M0 0 C2.31 0 4.62 0 7 0 C7 1.32 7 2.64 7 4 C4.69 4 2.38 4 0 4 C0 2.68 0 1.36 0 0 Z " fill="#054B9E" transform="translate(9,10)"/>
<path d="M0 0 C1.32 0.33 2.64 0.66 4 1 C4 2.98 4 4.96 4 7 C2.02 7 0.04 7 -2 7 C-1.34 4.69 -0.68 2.38 0 0 Z " fill="#AE969F" transform="translate(5,1)"/>
<path d="M0 0 C2.0625 0.4375 2.0625 0.4375 4 1 C3.34 2.98 2.68 4.96 2 7 C1.01 6.67 0.02 6.34 -1 6 C-1.042721 4.33388095 -1.04063832 2.66617115 -1 1 C-0.67 0.67 -0.34 0.34 0 0 Z " fill="#C3041E" transform="translate(9,1)"/>
<path d="M0 0 C0.66 0 1.32 0 2 0 C2.66 2.31 3.32 4.62 4 7 C2.02 7 0.04 7 -2 7 C-1.34 4.69 -0.68 2.38 0 0 Z " fill="#AF9FA8" transform="translate(13,1)"/>
<path d="M0 0 C1.32 0 2.64 0 4 0 C4 1.98 4 3.96 4 6 C2.68 6 1.36 6 0 6 C0 4.02 0 2.04 0 0 Z " fill="#0A4FA0" transform="translate(4,10)"/>
</svg>
