<?xml version="1.0" encoding="UTF-8"?>
<svg version="1.1" xmlns="http://www.w3.org/2000/svg" width="512" height="512">
<path d="M0 0 C52.47 0 104.94 0 159 0 C159 7.26 159 14.52 159 22 C173.85 22 188.7 22 204 22 C204 29.59 204 37.18 204 45 C218.85 45 233.7 45 249 45 C249 52.26 249 59.52 249 67 C256.26 67 263.52 67 271 67 C271 119.8 271 172.6 271 227 C263.74 227 256.48 227 249 227 C249 249.11 249 271.22 249 294 C241.74 294 234.48 294 227 294 C227 301.59 227 309.18 227 317 C212.15 317 197.3 317 182 317 C182 324.26 182 331.52 182 339 C114.35 339 46.7 339 -23 339 C-23 331.74 -23 324.48 -23 317 C-37.85 317 -52.7 317 -68 317 C-68 309.41 -68 301.82 -68 294 C-75.26 294 -82.52 294 -90 294 C-90 271.89 -90 249.78 -90 227 C-97.26 227 -104.52 227 -112 227 C-112 174.2 -112 121.4 -112 67 C-104.74 67 -97.48 67 -90 67 C-90 59.74 -90 52.48 -90 45 C-75.15 45 -60.3 45 -45 45 C-45 37.41 -45 29.82 -45 22 C-30.15 22 -15.3 22 0 22 C0 14.74 0 7.48 0 0 Z " fill="#010101" transform="translate(170,77)"/>
<path d="M0 0 C22.11 0 44.22 0 67 0 C67 96.69 67 193.38 67 293 C44.89 293 22.78 293 0 293 C0 196.31 0 99.62 0 0 Z " fill="#728A94" transform="translate(216,100)"/>
<path d="M0 0 C7.59 0 15.18 0 23 0 C23 7.26 23 14.52 23 22 C37.85 22 52.7 22 68 22 C68 29.59 68 37.18 68 45 C82.52 45 97.04 45 112 45 C112 82.29 112 119.58 112 158 C104.74 158 97.48 158 90 158 C90 150.41 90 142.82 90 135 C75.15 135 60.3 135 45 135 C45 127.74 45 120.48 45 113 C30.15 113 15.3 113 0 113 C0 75.71 0 38.42 0 0 Z " fill="#FCD745" transform="translate(306,100)"/>
<path d="M0 0 C7.59 0 15.18 0 23 0 C23 37.29 23 74.58 23 113 C8.15 113 -6.7 113 -22 113 C-22 120.26 -22 127.52 -22 135 C-36.85 135 -51.7 135 -67 135 C-67 142.59 -67 150.18 -67 158 C-74.26 158 -81.52 158 -89 158 C-89 120.71 -89 83.42 -89 45 C-74.48 45 -59.96 45 -45 45 C-45 37.41 -45 29.82 -45 22 C-30.15 22 -15.3 22 0 22 C0 14.74 0 7.48 0 0 Z " fill="#FCD745" transform="translate(170,100)"/>
<path d="M0 0 C22.11 0 44.22 0 67 0 C67 44.55 67 89.1 67 135 C44.89 135 22.78 135 0 135 C0 90.45 0 45.9 0 0 Z " fill="#728A94" transform="translate(216,100)"/>
<path d="M0 0 C14.85 0 29.7 0 45 0 C45 37.29 45 74.58 45 113 C30.15 113 15.3 113 0 113 C0 105.41 0 97.82 0 90 C-14.85 90 -29.7 90 -45 90 C-45 67.89 -45 45.78 -45 23 C-30.15 23 -15.3 23 0 23 C0 15.41 0 7.82 0 0 Z " fill="#BCBCC1" transform="translate(148,280)"/>
<path d="M0 0 C14.85 0 29.7 0 45 0 C45 7.59 45 15.18 45 23 C59.85 23 74.7 23 90 23 C90 45.11 90 67.22 90 90 C75.15 90 60.3 90 45 90 C45 97.59 45 105.18 45 113 C30.15 113 15.3 113 0 113 C0 75.71 0 38.42 0 0 Z " fill="#DCDCE0" transform="translate(306,280)"/>
<path d="M0 0 C0.33 0 0.66 0 1 0 C1 37.29 1 74.58 1 113 C15.85 113 30.7 113 46 113 C46 120.26 46 127.52 46 135 C60.85 135 75.7 135 91 135 C91 142.59 91 150.18 91 158 C98.26 158 105.52 158 113 158 C113 120.71 113 83.42 113 45 C113.33 45 113.66 45 114 45 C114 97.14 114 149.28 114 203 C91.56 203 69.12 203 46 203 C46 188.15 46 173.3 46 158 C30.82 158 15.64 158 0 158 C0 105.86 0 53.72 0 0 Z " fill="#A05314" transform="translate(305,100)"/>
<path d="M0 0 C0.33 0 0.66 0 1 0 C1 52.14 1 104.28 1 158 C-14.18 158 -29.36 158 -45 158 C-45 172.85 -45 187.7 -45 203 C-67.44 203 -89.88 203 -113 203 C-113 150.86 -113 98.72 -113 45 C-112.67 45 -112.34 45 -112 45 C-112 82.29 -112 119.58 -112 158 C-104.74 158 -97.48 158 -90 158 C-90 150.41 -90 142.82 -90 135 C-75.15 135 -60.3 135 -45 135 C-45 127.74 -45 120.48 -45 113 C-30.15 113 -15.3 113 0 113 C0 75.71 0 38.42 0 0 Z " fill="#A05314" transform="translate(193,100)"/>
<path d="M0 0 C0.33 0 0.66 0 1 0 C1 52.14 1 104.28 1 158 C-21.44 158 -43.88 158 -67 158 C-67 143.15 -67 128.3 -67 113 C-44.89 113 -22.78 113 0 113 C0 75.71 0 38.42 0 0 Z " fill="#935318" transform="translate(418,145)"/>
<path d="M0 0 C14.85 0 29.7 0 45 0 C45 37.29 45 74.58 45 113 C30.15 113 15.3 113 0 113 C0 105.41 0 97.82 0 90 C7.59 90 15.18 90 23 90 C23 82.74 23 75.48 23 68 C29.93 68 36.86 68 44 68 C44 53.15 44 38.3 44 23 C29.48 23 14.96 23 0 23 C0 15.41 0 7.82 0 0 Z " fill="#B6B6BA" transform="translate(148,280)"/>
<path d="M0 0 C0.33 0 0.66 0 1 0 C1 37.29 1 74.58 1 113 C8.26 113 15.52 113 23 113 C23 120.26 23 127.52 23 135 C37.85 135 52.7 135 68 135 C68 142.59 68 150.18 68 158 C45.56 158 23.12 158 0 158 C0 105.86 0 53.72 0 0 Z " fill="#935318" transform="translate(80,145)"/>
<path d="M0 0 C14.85 0 29.7 0 45 0 C45 22.11 45 44.22 45 67 C30.15 67 15.3 67 0 67 C0 59.74 0 52.48 0 45 C14.52 45 29.04 45 44 45 C44 37.41 44 29.82 44 22 C29.48 22 14.96 22 0 22 C0 14.74 0 7.48 0 0 Z " fill="#B7B7BB" transform="translate(351,303)"/>
<path d="M0 0 C14.85 0 29.7 0 45 0 C45 7.26 45 14.52 45 22 C30.48 22 15.96 22 1 22 C1 29.59 1 37.18 1 45 C15.52 45 30.04 45 45 45 C45 52.26 45 59.52 45 67 C30.15 67 15.3 67 0 67 C0 44.89 0 22.78 0 0 Z " fill="#B7B7BB" transform="translate(103,303)"/>
<path d="M0 0 C14.85 0 29.7 0 45 0 C45 7.59 45 15.18 45 23 C30.48 23 15.96 23 1 23 C1 30.59 1 38.18 1 46 C7.93 46 14.86 46 22 46 C22 53.26 22 60.52 22 68 C14.74 68 7.48 68 0 68 C0 45.56 0 23.12 0 0 Z " fill="#B5B5BA" transform="translate(306,280)"/>
<path d="M0 0 C22.11 0 44.22 0 67 0 C67 7.59 67 15.18 67 23 C44.89 23 22.78 23 0 23 C0 15.41 0 7.82 0 0 Z " fill="#54686D" transform="translate(216,370)"/>
<path d="M0 0 C22.11 0 44.22 0 67 0 C67 7.59 67 15.18 67 23 C44.89 23 22.78 23 0 23 C0 15.41 0 7.82 0 0 Z " fill="#B5BFC9" transform="translate(216,100)"/>
<path d="M0 0 C22.11 0 44.22 0 67 0 C67 7.26 67 14.52 67 22 C44.89 22 22.78 22 0 22 C0 14.74 0 7.48 0 0 Z " fill="#54696E" transform="translate(216,213)"/>
<path d="M0 0 C14.52 0 29.04 0 44 0 C44 14.85 44 29.7 44 45 C37.07 45 30.14 45 23 45 C23 37.41 23 29.82 23 22 C15.41 22 7.82 22 0 22 C0 14.74 0 7.48 0 0 Z " fill="#DCDCE0" transform="translate(148,303)"/>
<path d="M0 0 C0.33 0 0.66 0 1 0 C1 52.14 1 104.28 1 158 C0.67 158 0.34 158 0 158 C0 150.41 0 142.82 0 135 C-14.85 135 -29.7 135 -45 135 C-45 127.74 -45 120.48 -45 113 C-30.15 113 -15.3 113 0 113 C0 75.71 0 38.42 0 0 Z " fill="#904C15" transform="translate(193,100)"/>
<path d="M0 0 C0.33 0 0.66 0 1 0 C1 37.29 1 74.58 1 113 C15.52 113 30.04 113 45 113 C45 120.26 45 127.52 45 135 C30.48 135 15.96 135 1 135 C1 142.59 1 150.18 1 158 C0.67 158 0.34 158 0 158 C0 105.86 0 53.72 0 0 Z " fill="#904C14" transform="translate(305,100)"/>
<path d="M0 0 C14.85 0 29.7 0 45 0 C45 7.59 45 15.18 45 23 C30.15 23 15.3 23 0 23 C0 15.41 0 7.82 0 0 Z " fill="#B6B6BB" transform="translate(306,370)"/>
<path d="M0 0 C14.85 0 29.7 0 45 0 C45 7.59 45 15.18 45 23 C30.15 23 15.3 23 0 23 C0 15.41 0 7.82 0 0 Z " fill="#060502" transform="translate(351,280)"/>
<path d="M0 0 C14.85 0 29.7 0 45 0 C45 7.59 45 15.18 45 23 C30.15 23 15.3 23 0 23 C0 15.41 0 7.82 0 0 Z " fill="#060502" transform="translate(103,280)"/>
<path d="M0 0 C0.33 0 0.66 0 1 0 C1 14.52 1 29.04 1 44 C-13.85 44 -28.7 44 -44 44 C-44 36.74 -44 29.48 -44 22 C-29.48 22 -14.96 22 0 22 C0 14.74 0 7.48 0 0 Z " fill="#EA8401" transform="translate(350,213)"/>
<path d="M0 0 C14.85 0 29.7 0 45 0 C45 7.26 45 14.52 45 22 C30.15 22 15.3 22 0 22 C0 14.74 0 7.48 0 0 Z " fill="#EB8500" transform="translate(351,258)"/>
<path d="M0 0 C14.85 0 29.7 0 45 0 C45 7.26 45 14.52 45 22 C30.15 22 15.3 22 0 22 C0 14.74 0 7.48 0 0 Z " fill="#EB8500" transform="translate(103,258)"/>
<path d="M0 0 C14.85 0 29.7 0 45 0 C45 7.26 45 14.52 45 22 C30.15 22 15.3 22 0 22 C0 14.74 0 7.48 0 0 Z " fill="#EB8400" transform="translate(148,235)"/>
<path d="M0 0 C14.85 0 29.7 0 45 0 C45 7.26 45 14.52 45 22 C30.15 22 15.3 22 0 22 C0 14.74 0 7.48 0 0 Z " fill="#FEF4CE" transform="translate(328,123)"/>
<path d="M0 0 C14.85 0 29.7 0 45 0 C45 7.26 45 14.52 45 22 C30.15 22 15.3 22 0 22 C0 14.74 0 7.48 0 0 Z " fill="#FEF4CE" transform="translate(126,123)"/>
<path d="M0 0 C14.52 0 29.04 0 44 0 C44 7.26 44 14.52 44 22 C29.48 22 14.96 22 0 22 C0 14.74 0 7.48 0 0 Z " fill="#DCDCE0" transform="translate(104,326)"/>
<path d="M0 0 C14.52 0 29.04 0 44 0 C44 6.93 44 13.86 44 21 C29.48 21 14.96 21 0 21 C0 14.07 0 7.14 0 0 Z " fill="#FEF5D1" transform="translate(374,146)"/>
<path d="M0 0 C14.52 0 29.04 0 44 0 C44 6.93 44 13.86 44 21 C29.48 21 14.96 21 0 21 C0 14.07 0 7.14 0 0 Z " fill="#FEF5D1" transform="translate(81,146)"/>
<path d="M0 0 C7.26 0 14.52 0 22 0 C22 7.59 22 15.18 22 23 C14.74 23 7.48 23 0 23 C0 15.41 0 7.82 0 0 Z " fill="#E78300" transform="translate(396,280)"/>
<path d="M0 0 C7.26 0 14.52 0 22 0 C22 7.59 22 15.18 22 23 C14.74 23 7.48 23 0 23 C0 15.41 0 7.82 0 0 Z " fill="#E78300" transform="translate(81,280)"/>
<path d="M0 0 C7.26 0 14.52 0 22 0 C22 7.59 22 15.18 22 23 C14.74 23 7.48 23 0 23 C0 15.41 0 7.82 0 0 Z " fill="#FBF1CB" transform="translate(306,100)"/>
<path d="M0 0 C7.26 0 14.52 0 22 0 C22 7.59 22 15.18 22 23 C14.74 23 7.48 23 0 23 C0 15.41 0 7.82 0 0 Z " fill="#FBF1CB" transform="translate(171,100)"/>
<path d="M0 0 C7.26 0 14.52 0 22 0 C22 7.26 22 14.52 22 22 C14.74 22 7.48 22 0 22 C0 14.74 0 7.48 0 0 Z " fill="#DCDCE0" transform="translate(148,348)"/>
<path d="M0 0 C0.66 0 1.32 0 2 0 C2 0.66 2 1.32 2 2 C1.34 2 0.68 2 0 2 C0 1.34 0 0.68 0 0 Z " fill="#000000" transform="translate(30,209)"/>
<path d="M0 0 C2 1 2 1 2 1 Z " fill="#000000" transform="translate(42,267)"/>
</svg>
