<?xml version="1.0" encoding="UTF-8"?>
<svg version="1.1" xmlns="http://www.w3.org/2000/svg" width="160" height="160">
<path d="M0 0 C13.53 0 27.06 0 41 0 C41 2.97 41 5.94 41 9 C47.6 9.33 54.2 9.66 61 10 C61 13.3 61 16.6 61 20 C64.3 20 67.6 20 71 20 C71 23.3 71 26.6 71 30 C74.3 30 77.6 30 81 30 C81 36.6 81 43.2 81 50 C84.3 50 87.6 50 91 50 C91.02464705 55.67830078 91.04283462 61.35657069 91.05493164 67.03491211 C91.05997256 68.96818585 91.06680519 70.90145576 91.07543945 72.8347168 C91.08751565 75.60726872 91.09323057 78.37977041 91.09765625 81.15234375 C91.10281754 82.02213364 91.10797882 82.89192352 91.11329651 83.78807068 C91.11349185 85.85905814 91.06208168 87.92994324 91 90 C90 91 90 91 87.93359375 91.09765625 C87.10988281 91.08605469 86.28617188 91.07445313 85.4375 91.0625 C84.19806641 91.04896484 84.19806641 91.04896484 82.93359375 91.03515625 C81.97646484 91.01775391 81.97646484 91.01775391 81 91 C81.00523682 91.57032959 81.01047363 92.14065918 81.01586914 92.72827148 C81.03658221 95.29800323 81.0496419 97.86771747 81.0625 100.4375 C81.07087891 101.33533203 81.07925781 102.23316406 81.08789062 103.15820312 C81.09111328 104.01220703 81.09433594 104.86621094 81.09765625 105.74609375 C81.10289307 106.53685303 81.10812988 107.3276123 81.11352539 108.14233398 C81 110 81 110 80 111 C77.32941149 111.14115161 74.67567762 111.04247107 72 111 C71.93941406 111.63808594 71.87882812 112.27617188 71.81640625 112.93359375 C71.73261719 113.75988281 71.64882812 114.58617188 71.5625 115.4375 C71.48128906 116.26121094 71.40007812 117.08492188 71.31640625 117.93359375 C71 120 71 120 70 121 C68.48530552 121.23192865 66.96245438 121.41215238 65.4375 121.5625 C64.61121094 121.64628906 63.78492187 121.73007813 62.93359375 121.81640625 C62.29550781 121.87699219 61.65742187 121.93757813 61 122 C61.020625 123.11375 61.04125 124.2275 61.0625 125.375 C61 129 61 129 60 131 C53.73 131 47.46 131 41 131 C41 133.97 41 136.94 41 140 C40 141 40 141 36.21459961 141.11352539 C34.52717271 141.11336622 32.83974095 141.10766917 31.15234375 141.09765625 C29.82270348 141.09553383 29.82270348 141.09553383 28.46620178 141.09336853 C25.62326746 141.08775215 22.78041069 141.07519691 19.9375 141.0625 C18.01497509 141.05748711 16.09244896 141.05292384 14.16992188 141.04882812 C9.44658451 141.03777741 4.72330542 141.02050183 0 141 C0 137.7 0 134.4 0 131 C-6.6 131 -13.2 131 -20 131 C-20 127.7 -20 124.4 -20 121 C-23.3 121 -26.6 121 -30 121 C-30 117.7 -30 114.4 -30 111 C-33.3 111 -36.6 111 -40 111 C-40 104.4 -40 97.8 -40 91 C-43.3 91 -46.6 91 -50 91 C-50 77.47 -50 63.94 -50 50 C-46.7 50 -43.4 50 -40 50 C-40 43.4 -40 36.8 -40 30 C-36.7 30 -33.4 30 -30 30 C-30 26.7 -30 23.4 -30 20 C-26.7 20 -23.4 20 -20 20 C-20 16.7 -20 13.4 -20 10 C-13.4 10 -6.8 10 0 10 C0 6.7 0 3.4 0 0 Z " fill="#1D61E5" transform="translate(60,10)"/>
<path d="M0 0 C13.53 0 27.06 0 41 0 C41 2.97 41 5.94 41 9 C47.6 9.33 54.2 9.66 61 10 C61 13.3 61 16.6 61 20 C64.3 20 67.6 20 71 20 C71 23.3 71 26.6 71 30 C74.3 30 77.6 30 81 30 C81 36.6 81 43.2 81 50 C84.3 50 87.6 50 91 50 C91.02464705 55.67830078 91.04283462 61.35657069 91.05493164 67.03491211 C91.05997256 68.96818585 91.06680519 70.90145576 91.07543945 72.8347168 C91.08751565 75.60726872 91.09323057 78.37977041 91.09765625 81.15234375 C91.10281754 82.02213364 91.10797882 82.89192352 91.11329651 83.78807068 C91.11349185 85.85905814 91.06208168 87.92994324 91 90 C90 91 90 91 87.93359375 91.09765625 C87.10988281 91.08605469 86.28617188 91.07445313 85.4375 91.0625 C84.19806641 91.04896484 84.19806641 91.04896484 82.93359375 91.03515625 C81.97646484 91.01775391 81.97646484 91.01775391 81 91 C81.00523682 91.57032959 81.01047363 92.14065918 81.01586914 92.72827148 C81.03658221 95.29800323 81.0496419 97.86771747 81.0625 100.4375 C81.07087891 101.33533203 81.07925781 102.23316406 81.08789062 103.15820312 C81.09111328 104.01220703 81.09433594 104.86621094 81.09765625 105.74609375 C81.10289307 106.53685303 81.10812988 107.3276123 81.11352539 108.14233398 C81 110 81 110 80 111 C77.32941149 111.14115161 74.67567762 111.04247107 72 111 C71.93941406 111.63808594 71.87882812 112.27617188 71.81640625 112.93359375 C71.73261719 113.75988281 71.64882812 114.58617188 71.5625 115.4375 C71.48128906 116.26121094 71.40007812 117.08492188 71.31640625 117.93359375 C71 120 71 120 70 121 C68.48530552 121.23192865 66.96245438 121.41215238 65.4375 121.5625 C64.61121094 121.64628906 63.78492187 121.73007813 62.93359375 121.81640625 C62.29550781 121.87699219 61.65742187 121.93757813 61 122 C61.020625 123.11375 61.04125 124.2275 61.0625 125.375 C61 129 61 129 60 131 C53.73 131 47.46 131 41 131 C41 133.97 41 136.94 41 140 C40 141 40 141 36.21459961 141.11352539 C34.52717271 141.11336622 32.83974095 141.10766917 31.15234375 141.09765625 C29.82270348 141.09553383 29.82270348 141.09553383 28.46620178 141.09336853 C25.62326746 141.08775215 22.78041069 141.07519691 19.9375 141.0625 C18.01497509 141.05748711 16.09244896 141.05292384 14.16992188 141.04882812 C9.44658451 141.03777741 4.72330542 141.02050183 0 141 C0 137.7 0 134.4 0 131 C-6.6 131 -13.2 131 -20 131 C-20 127.7 -20 124.4 -20 121 C-23.3 121 -26.6 121 -30 121 C-30 117.7 -30 114.4 -30 111 C-33.3 111 -36.6 111 -40 111 C-40 104.4 -40 97.8 -40 91 C-43.3 91 -46.6 91 -50 91 C-50 77.47 -50 63.94 -50 50 C-46.7 50 -43.4 50 -40 50 C-40 43.4 -40 36.8 -40 30 C-36.7 30 -33.4 30 -30 30 C-30 26.7 -30 23.4 -30 20 C-26.7 20 -23.4 20 -20 20 C-20 16.7 -20 13.4 -20 10 C-13.4 10 -6.8 10 0 10 C0 6.7 0 3.4 0 0 Z M40 20 C40 23.3 40 26.6 40 30 C30.1 30 20.2 30 10 30 C10 36.6 10 43.2 10 50 C3.4 50 -3.2 50 -10 50 C-10 53.3 -10 56.6 -10 60 C-3.4 60 3.2 60 10 60 C10 63.3 10 66.6 10 70 C0.1 70 -9.8 70 -20 70 C-20 66.7 -20 63.4 -20 60 C-26.6 60 -33.2 60 -40 60 C-40 69.9 -40 79.8 -40 90 C-36.7 90 -33.4 90 -30 90 C-30 96.6 -30 103.2 -30 110 C-26.7 110 -23.4 110 -20 110 C-20 113.3 -20 116.6 -20 120 C-13.4 120 -6.8 120 0 120 C0 123.3 0 126.6 0 130 C13.2 130 26.4 130 40 130 C40 126.7 40 123.4 40 120 C46.6 120 53.2 120 60 120 C60 116.7 60 113.4 60 110 C63.3 110 66.6 110 70 110 C70 103.4 70 96.8 70 90 C73.3 90 76.6 90 80 90 C80 76.8 80 63.6 80 50 C76.7 50 73.4 50 70 50 C70 43.4 70 36.8 70 30 C66.7 30 63.4 30 60 30 C60 26.7 60 23.4 60 20 C53.4 20 46.8 20 40 20 Z " fill="#4BD55D" transform="translate(60,10)"/>
<path d="M0 0 C6.93 0 13.86 0 21 0 C21 3.3 21 6.6 21 10 C24.3 10 27.6 10 31 10 C31 13.3 31 16.6 31 20 C34.3 20 37.6 20 41 20 C41 26.6 41 33.2 41 40 C44.3 40 47.6 40 51 40 C51.02464705 45.67830078 51.04283462 51.35657069 51.05493164 57.03491211 C51.05997256 58.96818585 51.06680519 60.90145576 51.07543945 62.8347168 C51.08751565 65.60726872 51.09323057 68.37977041 51.09765625 71.15234375 C51.10281754 72.02213364 51.10797882 72.89192352 51.11329651 73.78807068 C51.11349185 75.85905814 51.06208168 77.92994324 51 80 C50 81 50 81 47.93359375 81.09765625 C47.10988281 81.08605469 46.28617188 81.07445313 45.4375 81.0625 C44.19806641 81.04896484 44.19806641 81.04896484 42.93359375 81.03515625 C41.97646484 81.01775391 41.97646484 81.01775391 41 81 C41.00523682 81.57032959 41.01047363 82.14065918 41.01586914 82.72827148 C41.03658221 85.29800323 41.0496419 87.86771747 41.0625 90.4375 C41.07087891 91.33533203 41.07925781 92.23316406 41.08789062 93.15820312 C41.09111328 94.01220703 41.09433594 94.86621094 41.09765625 95.74609375 C41.10289307 96.53685303 41.10812988 97.3276123 41.11352539 98.14233398 C41 100 41 100 40 101 C37.32941149 101.14115161 34.67567762 101.04247107 32 101 C31.93941406 101.63808594 31.87882812 102.27617188 31.81640625 102.93359375 C31.73261719 103.75988281 31.64882812 104.58617188 31.5625 105.4375 C31.48128906 106.26121094 31.40007812 107.08492188 31.31640625 107.93359375 C31 110 31 110 30 111 C28.48530552 111.23192865 26.96245438 111.41215238 25.4375 111.5625 C24.61121094 111.64628906 23.78492187 111.73007813 22.93359375 111.81640625 C22.29550781 111.87699219 21.65742187 111.93757813 21 112 C21.020625 113.11375 21.04125 114.2275 21.0625 115.375 C21 119 21 119 20 121 C13.73 121 7.46 121 1 121 C1 123.97 1 126.94 1 130 C0 131 0 131 -3.78540039 131.11352539 C-5.47282729 131.11336622 -7.16025905 131.10766917 -8.84765625 131.09765625 C-10.17729652 131.09553383 -10.17729652 131.09553383 -11.53379822 131.09336853 C-14.37673254 131.08775215 -17.21958931 131.07519691 -20.0625 131.0625 C-21.98502491 131.05748711 -23.90755104 131.05292384 -25.83007812 131.04882812 C-30.55341549 131.03777741 -35.27669458 131.02050183 -40 131 C-40 127.7 -40 124.4 -40 121 C-46.6 121 -53.2 121 -60 121 C-60 117.7 -60 114.4 -60 111 C-63.3 111 -66.6 111 -70 111 C-70 107.7 -70 104.4 -70 101 C-73.3 101 -76.6 101 -80 101 C-80 94.4 -80 87.8 -80 81 C-83.3 81 -86.6 81 -90 81 C-90 67.47 -90 53.94 -90 40 C-86.7 40 -83.4 40 -80 40 C-80 53.2 -80 66.4 -80 80 C-76.7 80 -73.4 80 -70 80 C-70 86.6 -70 93.2 -70 100 C-66.7 100 -63.4 100 -60 100 C-60 103.3 -60 106.6 -60 110 C-53.4 110 -46.8 110 -40 110 C-40 113.3 -40 116.6 -40 120 C-26.8 120 -13.6 120 0 120 C0 116.7 0 113.4 0 110 C6.6 110 13.2 110 20 110 C20 106.7 20 103.4 20 100 C23.3 100 26.6 100 30 100 C30 93.4 30 86.8 30 80 C33.3 80 36.6 80 40 80 C40 66.8 40 53.6 40 40 C36.7 40 33.4 40 30 40 C30 33.4 30 26.8 30 20 C26.7 20 23.4 20 20 20 C20 16.7 20 13.4 20 10 C13.4 10 6.8 10 0 10 C0 6.7 0 3.4 0 0 Z " fill="#050A17" transform="translate(100,20)"/>
<path d="M0 0 C6.6 0 13.2 0 20 0 C20 3.3 20 6.6 20 10 C29.9 10 39.8 10 50 10 C50 13.3 50 16.6 50 20 C46.7 20 43.4 20 40 20 C40 26.6 40 33.2 40 40 C43.3 40 46.6 40 50 40 C50 43.3 50 46.6 50 50 C53.3 50 56.6 50 60 50 C60 56.6 60 63.2 60 70 C53.4 70 46.8 70 40 70 C40 66.7 40 63.4 40 60 C33.4 60 26.8 60 20 60 C20 56.7 20 53.4 20 50 C16.7 50 13.4 50 10 50 C10 43.4 10 36.8 10 30 C6.7 30 3.4 30 0 30 C0 20.1 0 10.2 0 0 Z " fill="#1D61E4" transform="translate(20,70)"/>
<path d="M0 0 C6.6 0 13.2 0 20 0 C20 3.3 20 6.6 20 10 C23.3 10 26.6 10 30 10 C30 16.6 30 23.2 30 30 C36.6 30 43.2 30 50 30 C50 36.6 50 43.2 50 50 C43.4 50 36.8 50 30 50 C30 53.3 30 56.6 30 60 C23.4 60 16.8 60 10 60 C10 53.4 10 46.8 10 40 C6.7 40 3.4 40 0 40 C0 36.7 0 33.4 0 30 C-3.3 30 -6.6 30 -10 30 C-10 23.4 -10 16.8 -10 10 C-6.7 10 -3.4 10 0 10 C0 6.7 0 3.4 0 0 Z " fill="#45CB57" transform="translate(70,80)"/>
<path d="M0 0 C6.6 0 13.2 0 20 0 C20 6.6 20 13.2 20 20 C13.4 20 6.8 20 0 20 C0 23.3 0 26.6 0 30 C-3.3 30 -6.6 30 -10 30 C-10 36.6 -10 43.2 -10 50 C-16.6 50 -23.2 50 -30 50 C-30 46.7 -30 43.4 -30 40 C-36.6 40 -43.2 40 -50 40 C-50 36.7 -50 33.4 -50 30 C-43.4 30 -36.8 30 -30 30 C-30 23.4 -30 16.8 -30 10 C-20.1 10 -10.2 10 0 10 C0 6.7 0 3.4 0 0 Z " fill="#3073E3" transform="translate(100,30)"/>
<path d="M0 0 C6.6 0 13.2 0 20 0 C20 3.3 20 6.6 20 10 C29.9 10 39.8 10 50 10 C50 13.3 50 16.6 50 20 C46.37 20 42.74 20 39 20 C39 23.3 39 26.6 39 30 C32.73 30 26.46 30 20 30 C20 26.7 20 23.4 20 20 C16.7 20 13.4 20 10 20 C10 13.73 10 7.46 10 1 C7.03 1 4.06 1 1 1 C1 10.24 1 19.48 1 29 C3.97 29 6.94 29 10 29 C10 29.33 10 29.66 10 30 C6.7 30 3.4 30 0 30 C0 20.1 0 10.2 0 0 Z " fill="#2F73DF" transform="translate(20,70)"/>
<path d="M0 0 C0.33 0 0.66 0 1 0 C1.02467609 5.51757479 1.04284856 11.03511761 1.05493164 16.55273438 C1.05996763 18.43066975 1.06679671 20.3086012 1.07543945 22.18652344 C1.08753713 24.88217132 1.09323557 27.57776747 1.09765625 30.2734375 C1.10281754 31.11619232 1.10797882 31.95894714 1.11329651 32.82723999 C1.11387171 38.77225659 1.11387171 38.77225659 0 41 C-0.07148814 42.36417244 -0.08399339 43.73178106 -0.0625 45.09765625 C-0.05089844 46.29938477 -0.05089844 46.29938477 -0.0390625 47.52539062 C-0.02617187 48.36263672 -0.01328125 49.19988281 0 50.0625 C0.04574281 53.04721825 0.04706907 56.01405572 0 59 C-1 60 -1 60 -2.84765625 60.09765625 C-4.8984375 60.06510417 -6.94921875 60.03255208 -9 60 C-9.09087891 60.95712891 -9.09087891 60.95712891 -9.18359375 61.93359375 C-9.26738281 62.75988281 -9.35117188 63.58617187 -9.4375 64.4375 C-9.51871094 65.26121094 -9.59992188 66.08492188 -9.68359375 66.93359375 C-10 69 -10 69 -11 70 C-12.51469448 70.23192865 -14.03754562 70.41215238 -15.5625 70.5625 C-16.80193359 70.68818359 -16.80193359 70.68818359 -18.06640625 70.81640625 C-18.70449219 70.87699219 -19.34257813 70.93757813 -20 71 C-19.979375 72.11375 -19.95875 73.2275 -19.9375 74.375 C-20 78 -20 78 -21 80 C-27.27 80 -33.54 80 -40 80 C-40.33 80.66 -40.66 81.32 -41 82 C-41 81.34 -41 80.68 -41 80 C-47.6 80 -54.2 80 -61 80 C-61 79.67 -61 79.34 -61 79 C-54.4 79 -47.8 79 -41 79 C-41 75.7 -41 72.4 -41 69 C-34.4 69 -27.8 69 -21 69 C-21 65.7 -21 62.4 -21 59 C-17.7 59 -14.4 59 -11 59 C-11 52.4 -11 45.8 -11 39 C-6.05 38.505 -6.05 38.505 -1 38 C-0.67 25.46 -0.34 12.92 0 0 Z " fill="#00021C" transform="translate(141,61)"/>
<path d="M0 0 C6.6 0 13.2 0 20 0 C20 3.3 20 6.6 20 10 C16.7 10 13.4 10 10 10 C10 13.3 10 16.6 10 20 C3.73 20 -2.54 20 -9 20 C-9 22.97 -9 25.94 -9 29 C-6.03 29 -3.06 29 0 29 C0 29.33 0 29.66 0 30 C-3.3 30 -6.6 30 -10 30 C-10 23.4 -10 16.8 -10 10 C-6.7 10 -3.4 10 0 10 C0 6.7 0 3.4 0 0 Z " fill="#4AD85B" transform="translate(70,80)"/>
<path d="M0 0 C13.53 0 27.06 0 41 0 C41 2.97 41 5.94 41 9 C40 10 40 10 36.21459961 10.11352539 C34.52717271 10.11336622 32.83974095 10.10766917 31.15234375 10.09765625 C29.82270348 10.09553383 29.82270348 10.09553383 28.46620178 10.09336853 C25.62326746 10.08775215 22.78041069 10.07519691 19.9375 10.0625 C18.01497509 10.05748711 16.09244896 10.05292384 14.16992188 10.04882812 C9.44658451 10.03777741 4.72330542 10.02050183 0 10 C0 6.7 0 3.4 0 0 Z " fill="#020403" transform="translate(60,10)"/>
<path d="M0 0 C3.3 0 6.6 0 10 0 C9.67 13.2 9.34 26.4 9 40 C4.545 40.495 4.545 40.495 0 41 C0 27.47 0 13.94 0 0 Z " fill="#010202" transform="translate(10,60)"/>
<path d="M0 0 C2.97 0 5.94 0 9 0 C9.02464775 5.53588533 9.04283496 11.071739 9.05493164 16.60766602 C9.05997244 18.4924373 9.06680498 20.37720465 9.07543945 22.26196289 C9.08751617 24.96501636 9.09323068 27.66801831 9.09765625 30.37109375 C9.10281754 31.21900986 9.10797882 32.06692596 9.11329651 32.9405365 C9.11349195 34.96071068 9.06206211 36.98077934 9 39 C8 40 8 40 4.5 40.125 C1 40 1 40 0 39 C-0.08865208 36.1156618 -0.11521296 33.25537842 -0.09765625 30.37109375 C-0.0962413 29.50686295 -0.09482635 28.64263214 -0.09336853 27.75221252 C-0.08775239 24.98060708 -0.07519719 22.2090812 -0.0625 19.4375 C-0.05748708 17.5631522 -0.05292381 15.68880315 -0.04882812 13.81445312 C-0.03777772 9.20960456 -0.0205023 4.60481579 0 0 Z " fill="#010103" transform="translate(142,61)"/>
<path d="M0 0 C3.3 0 6.6 0 10 0 C10 6.6 10 13.2 10 20 C6.7 20 3.4 20 0 20 C0 13.4 0 6.8 0 0 Z " fill="#020402" transform="translate(20,40)"/>
<path d="M0 0 C6.6 0 13.2 0 20 0 C20 3.3 20 6.6 20 10 C13.4 10 6.8 10 0 10 C0 6.7 0 3.4 0 0 Z " fill="#020402" transform="translate(40,20)"/>
<path d="M0 0 C6.27 0 12.54 0 19 0 C20.00000429 4.00001715 19.80688405 6.05523353 19 10 C16.02077407 10.02683987 13.04178705 10.04676037 10.0625 10.0625 C8.78729492 10.07506836 8.78729492 10.07506836 7.48632812 10.08789062 C6.67744141 10.09111328 5.86855469 10.09433594 5.03515625 10.09765625 C4.2862915 10.10289307 3.53742676 10.10812988 2.76586914 10.11352539 C1 10 1 10 0 9 C0 6.03 0 3.06 0 0 Z " fill="#020605" transform="translate(101,131)"/>
<path d="M0 0 C6.6 0 13.2 0 20 0 C20 7 20 7 19 9 C12.73 9 6.46 9 0 9 C0 6.03 0 3.06 0 0 Z " fill="#020202" transform="translate(101,20)"/>
<path d="M0 0 C2.64 0 5.28 0 8 0 C8.02683987 2.97922593 8.04676037 5.95821295 8.0625 8.9375 C8.07087891 9.78763672 8.07925781 10.63777344 8.08789062 11.51367188 C8.09111328 12.32255859 8.09433594 13.13144531 8.09765625 13.96484375 C8.10289307 14.7137085 8.10812988 15.46257324 8.11352539 16.23413086 C8 18 8 18 7 19 C3.5 19.125 3.5 19.125 0 19 C-1.81187842 17.18812158 -1.13234462 14.7302249 -1.13671875 12.32226562 C-1.13285156 11.57654297 -1.12898437 10.83082031 -1.125 10.0625 C-1.12886719 9.32064453 -1.13273438 8.57878906 -1.13671875 7.81445312 C-1.12663501 2.25327002 -1.12663501 2.25327002 0 0 Z " fill="#050506" transform="translate(133,102)"/>
<path d="M0 0 C6.6 0 13.2 0 20 0 C20 3.3 20 6.6 20 10 C19.67 10 19.34 10 19 10 C19 7.03 19 4.06 19 1 C13.06 1 7.12 1 1 1 C1 4.63 1 8.26 1 12 C-0.32 12.33 -1.64 12.66 -3 13 C-2.81171228 15.44480079 -2.81171228 15.44480079 -2 18 C-0.68 18.66 0.64 19.32 2 20 C-1.63 20 -5.26 20 -9 20 C-9 22.97 -9 25.94 -9 29 C-6.03 29 -3.06 29 0 29 C0 29.33 0 29.66 0 30 C-3.3 30 -6.6 30 -10 30 C-10 23.4 -10 16.8 -10 10 C-6.7 10 -3.4 10 0 10 C0 6.7 0 3.4 0 0 Z " fill="#4ECE79" transform="translate(70,80)"/>
<path d="M0 0 C2.31 0 4.62 0 7 0 C7 6.27 7 12.54 7 19 C4.36 19 1.72 19 -1 19 C-0.67 12.73 -0.34 6.46 0 0 Z " fill="#020203" transform="translate(133,40)"/>
<path d="M0 0 C6.6 0 13.2 0 20 0 C20 0.33 20 0.66 20 1 C16.7 1 13.4 1 10 1 C10 1.66 10 2.32 10 3 C10.66 3 11.32 3 12 3 C12.33 4.98 12.66 6.96 13 9 C15.31 9 17.62 9 20 9 C20 9.33 20 9.66 20 10 C13.4 10 6.8 10 0 10 C0 6.7 0 3.4 0 0 Z " fill="#2D77D4" transform="translate(50,60)"/>
<path d="M0 0 C3.3 0 6.6 0 10 0 C10 3.3 10 6.6 10 10 C6.7 10 3.4 10 0 10 C0 6.7 0 3.4 0 0 Z " fill="#010301" transform="translate(30,30)"/>
<path d="M0 0 C2.97 0 5.94 0 9 0 C9.33 2.97 9.66 5.94 10 9 C5.99998285 10.00000429 3.94476647 9.80688405 0 9 C0 6.03 0 3.06 0 0 Z " fill="#020506" transform="translate(121,121)"/>
<path d="M0 0 C2.97 0 5.94 0 9 0 C9 2.97 9 5.94 9 9 C4.545 9.495 4.545 9.495 0 10 C0 6.7 0 3.4 0 0 Z " fill="#010207" transform="translate(30,121)"/>
<path d="M0 0 C3.3 0 6.6 0 10 0 C9.67 2.97 9.34 5.94 9 9 C6.03 9 3.06 9 0 9 C0 6.03 0 3.06 0 0 Z " fill="#010106" transform="translate(121,30)"/>
<path d="M0 0 C0 2.97 0 5.94 0 9 C-2.97 9 -5.94 9 -9 9 C-9 6.36 -9 3.72 -9 1 C-6.04335481 -0.4783226 -3.25770263 -0.06032783 0 0 Z " fill="#44CC52" transform="translate(50,31)"/>
<path d="M0 0 C0 2.97 0 5.94 0 9 C-2.97 9 -5.94 9 -9 9 C-9 6.36 -9 3.72 -9 1 C-1.125 0 -1.125 0 0 0 Z " fill="#44CB53" transform="translate(30,60)"/>
<path d="M0 0 C0.33 0 0.66 0 1 0 C1 3.3 1 6.6 1 10 C2.98 10 4.96 10 7 10 C7 10.33 7 10.66 7 11 C-1.58 11 -10.16 11 -19 11 C-18.67 14.3 -18.34 17.6 -18 21 C-18.66 21.66 -19.32 22.32 -20 23 C-20 22.34 -20 21.68 -20 21 C-26.6 21 -33.2 21 -40 21 C-40 20.67 -40 20.34 -40 20 C-33.4 20 -26.8 20 -20 20 C-20 16.7 -20 13.4 -20 10 C-13.4 10 -6.8 10 0 10 C0 6.7 0 3.4 0 0 Z " fill="#2A5A29" transform="translate(120,120)"/>
<path d="M0 0 C2.97 0 5.94 0 9 0 C9 0.33 9 0.66 9 1 C6.36 1 3.72 1 1 1 C1.05329468 1.86165771 1.05329468 1.86165771 1.10766602 2.74072266 C1.26624021 5.36844787 1.41445034 7.99666166 1.5625 10.625 C1.61857422 11.52863281 1.67464844 12.43226562 1.73242188 13.36328125 C1.99066718 18.08056217 2.04292737 22.34931647 1 27 C0.67 27 0.34 27 0 27 C0 25.02 0 23.04 0 21 C-2.97 21 -5.94 21 -9 21 C-9 20.67 -9 20.34 -9 20 C-6.03 20 -3.06 20 0 20 C0 13.4 0 6.8 0 0 Z " fill="#0C2869" transform="translate(130,100)"/>
<path d="M0 0 C0.33 1.32 0.66 2.64 1 4 C1.598125 3.34 2.19625 2.68 2.8125 2 C5 0 5 0 8 0 C6.84826645 2.46800047 5.95216435 4.04783565 4 6 C3.01 6 2.02 6 1 6 C1 6.99 1 7.98 1 9 C3.97 9 6.94 9 10 9 C10 9.33 10 9.66 10 10 C6.7 10 3.4 10 0 10 C0 6.7 0 3.4 0 0 Z " fill="#48C471" transform="translate(70,110)"/>
<path d="M0 0 C0.66 0 1.32 0 2 0 C2 1.32 2 2.64 2 4 C2.66 4 3.32 4 4 4 C3.67 5.32 3.34 6.64 3 8 C5.31 8.33 7.62 8.66 10 9 C10 9.33 10 9.66 10 10 C6.7 10 3.4 10 0 10 C0 6.7 0 3.4 0 0 Z " fill="#176DC6" transform="translate(90,80)"/>
<path d="M0 0 C3.3 0 6.6 0 10 0 C10 3.3 10 6.6 10 10 C9.67 10 9.34 10 9 10 C9 7.36 9 4.72 9 2 C4.545 2.495 4.545 2.495 0 3 C0 2.01 0 1.02 0 0 Z " fill="#166FC0" transform="translate(60,110)"/>
<path d="M0 0 C3 1 3 1 6 3 C4.35 3.33 2.7 3.66 1 4 C1 6.64 1 9.28 1 12 C0.67 12 0.34 12 0 12 C0 8.04 0 4.08 0 0 Z " fill="#1962DA" transform="translate(101,90)"/>
<path d="M0 0 C0.66 0.66 1.32 1.32 2 2 C1.625 5.125 1.625 5.125 1 8 C0.67 8 0.34 8 0 8 C0 6.02 0 4.04 0 2 C-2.97 2 -5.94 2 -9 2 C-9 1.67 -9 1.34 -9 1 C-7.54364629 0.77825067 -6.08477044 0.57301302 -4.625 0.375 C-3.40683594 0.20097656 -3.40683594 0.20097656 -2.1640625 0.0234375 C-1.44992188 0.01570313 -0.73578125 0.00796875 0 0 Z " fill="#292055" transform="translate(130,119)"/>
</svg>
